solid OpenSCAD_Model
  facet normal -0.994521 0.104537 0
    outer loop
      vertex -19.9 0 0
      vertex -19.4651 4.13744 16
      vertex -19.4651 4.13744 0
    endloop
  endfacet
  facet normal -0.994521 0.104537 0
    outer loop
      vertex -19.4651 4.13744 16
      vertex -19.9 0 0
      vertex -19.9 0 16
    endloop
  endfacet
  facet normal 0.866015 -0.500018 0
    outer loop
      vertex 16.0994 -11.6969 16
      vertex 18.1796 -8.09406 0
      vertex 18.1796 -8.09406 16
    endloop
  endfacet
  facet normal 0.866015 -0.500018 0
    outer loop
      vertex 18.1796 -8.09406 0
      vertex 16.0994 -11.6969 16
      vertex 16.0994 -11.6969 0
    endloop
  endfacet
  facet normal 0.207921 -0.978146 0
    outer loop
      vertex 2.08012 -19.791 0
      vertex 6.14944 -18.926 16
      vertex 2.08012 -19.791 16
    endloop
  endfacet
  facet normal 0.207921 -0.978146 0
    outer loop
      vertex 6.14944 -18.926 16
      vertex 2.08012 -19.791 0
      vertex 6.14944 -18.926 0
    endloop
  endfacet
  facet normal 0.951062 0.308999 0
    outer loop
      vertex 19.4651 4.13744 16
      vertex 18.1796 8.09406 0
      vertex 18.1796 8.09406 16
    endloop
  endfacet
  facet normal 0.951062 0.308999 0
    outer loop
      vertex 18.1796 8.09406 0
      vertex 19.4651 4.13744 16
      vertex 19.4651 4.13744 0
    endloop
  endfacet
  facet normal 0.406733 0.913547 -0
    outer loop
      vertex 9.95 17.2339 0
      vertex 6.14944 18.926 16
      vertex 9.95 17.2339 16
    endloop
  endfacet
  facet normal 0.406733 0.913547 0
    outer loop
      vertex 6.14944 18.926 16
      vertex 9.95 17.2339 0
      vertex 6.14944 18.926 0
    endloop
  endfacet
  facet normal -0.207921 0.978146 0
    outer loop
      vertex -2.08012 19.791 0
      vertex -6.14944 18.926 16
      vertex -2.08012 19.791 16
    endloop
  endfacet
  facet normal -0.207921 0.978146 0
    outer loop
      vertex -6.14944 18.926 16
      vertex -2.08012 19.791 0
      vertex -6.14944 18.926 0
    endloop
  endfacet
  facet normal -0.587781 0.80902 0
    outer loop
      vertex -9.95 17.2339 0
      vertex -13.3157 14.7886 16
      vertex -9.95 17.2339 16
    endloop
  endfacet
  facet normal -0.587781 0.80902 0
    outer loop
      vertex -13.3157 14.7886 16
      vertex -9.95 17.2339 0
      vertex -13.3157 14.7886 0
    endloop
  endfacet
  facet normal 0.994521 -0.104537 0
    outer loop
      vertex 19.4651 -4.13744 16
      vertex 19.9 0 0
      vertex 19.9 0 16
    endloop
  endfacet
  facet normal 0.994521 -0.104537 0
    outer loop
      vertex 19.9 0 0
      vertex 19.4651 -4.13744 16
      vertex 19.4651 -4.13744 0
    endloop
  endfacet
  facet normal 0.994521 0.104537 0
    outer loop
      vertex 19.9 0 16
      vertex 19.4651 4.13744 0
      vertex 19.4651 4.13744 16
    endloop
  endfacet
  facet normal 0.994521 0.104537 0
    outer loop
      vertex 19.4651 4.13744 0
      vertex 19.9 0 16
      vertex 19.9 0 0
    endloop
  endfacet
  facet normal 0.207921 0.978146 -0
    outer loop
      vertex 6.14944 18.926 0
      vertex 2.08012 19.791 16
      vertex 6.14944 18.926 16
    endloop
  endfacet
  facet normal 0.207921 0.978146 0
    outer loop
      vertex 2.08012 19.791 16
      vertex 6.14944 18.926 0
      vertex 2.08012 19.791 0
    endloop
  endfacet
  facet normal -0.951062 0.308999 0
    outer loop
      vertex -19.4651 4.13744 0
      vertex -18.1796 8.09406 16
      vertex -18.1796 8.09406 0
    endloop
  endfacet
  facet normal -0.951062 0.308999 0
    outer loop
      vertex -18.1796 8.09406 16
      vertex -19.4651 4.13744 0
      vertex -19.4651 4.13744 16
    endloop
  endfacet
  facet normal -0.951062 -0.308999 0
    outer loop
      vertex -18.1796 -8.09406 0
      vertex -19.4651 -4.13744 16
      vertex -19.4651 -4.13744 0
    endloop
  endfacet
  facet normal -0.951062 -0.308999 0
    outer loop
      vertex -19.4651 -4.13744 16
      vertex -18.1796 -8.09406 0
      vertex -18.1796 -8.09406 16
    endloop
  endfacet
  facet normal -0.866015 0.500018 0
    outer loop
      vertex -18.1796 8.09406 0
      vertex -16.0994 11.6969 16
      vertex -16.0994 11.6969 0
    endloop
  endfacet
  facet normal -0.866015 0.500018 0
    outer loop
      vertex -16.0994 11.6969 16
      vertex -18.1796 8.09406 0
      vertex -18.1796 8.09406 16
    endloop
  endfacet
  facet normal -0.207921 -0.978146 0
    outer loop
      vertex -6.14944 -18.926 0
      vertex -2.08012 -19.791 16
      vertex -6.14944 -18.926 16
    endloop
  endfacet
  facet normal -0.207921 -0.978146 -0
    outer loop
      vertex -2.08012 -19.791 16
      vertex -6.14944 -18.926 0
      vertex -2.08012 -19.791 0
    endloop
  endfacet
  facet normal 0.743154 0.66912 0
    outer loop
      vertex 16.0994 11.6969 16
      vertex 13.3157 14.7886 0
      vertex 13.3157 14.7886 16
    endloop
  endfacet
  facet normal 0.743154 0.66912 0
    outer loop
      vertex 13.3157 14.7886 0
      vertex 16.0994 11.6969 16
      vertex 16.0994 11.6969 0
    endloop
  endfacet
  facet normal 0 0 1
    outer loop
      vertex 18.9 0 16
      vertex 19.9 0 16
      vertex 19.4651 4.13744 16
    endloop
  endfacet
  facet normal 0 0 1
    outer loop
      vertex 19.9 0 16
      vertex 18.9 0 16
      vertex 19.4651 -4.13744 16
    endloop
  endfacet
  facet normal 0 0 1
    outer loop
      vertex 19.4651 4.13744 16
      vertex 18.487 3.92953 16
      vertex 18.9 0 16
    endloop
  endfacet
  facet normal 0 0 1
    outer loop
      vertex 18.1796 8.09406 16
      vertex 18.487 3.92953 16
      vertex 19.4651 4.13744 16
    endloop
  endfacet
  facet normal 0 0 1
    outer loop
      vertex 18.1796 8.09406 16
      vertex 17.266 7.68732 16
      vertex 18.487 3.92953 16
    endloop
  endfacet
  facet normal 0 0 1
    outer loop
      vertex 16.0994 11.6969 16
      vertex 17.266 7.68732 16
      vertex 18.1796 8.09406 16
    endloop
  endfacet
  facet normal 0 0 1
    outer loop
      vertex 16.0994 11.6969 16
      vertex 15.2904 11.1091 16
      vertex 17.266 7.68732 16
    endloop
  endfacet
  facet normal 0 0 1
    outer loop
      vertex 13.3157 14.7886 16
      vertex 15.2904 11.1091 16
      vertex 16.0994 11.6969 16
    endloop
  endfacet
  facet normal 0 0 1
    outer loop
      vertex 13.3157 14.7886 16
      vertex 12.6466 14.0454 16
      vertex 15.2904 11.1091 16
    endloop
  endfacet
  facet normal 0 0 1
    outer loop
      vertex 9.95 17.2339 16
      vertex 12.6466 14.0454 16
      vertex 13.3157 14.7886 16
    endloop
  endfacet
  facet normal 0 0 1
    outer loop
      vertex 9.95 17.2339 16
      vertex 9.45 16.3679 16
      vertex 12.6466 14.0454 16
    endloop
  endfacet
  facet normal 0 0 1
    outer loop
      vertex 6.14944 18.926 16
      vertex 9.45 16.3679 16
      vertex 9.95 17.2339 16
    endloop
  endfacet
  facet normal 0 0 1
    outer loop
      vertex 6.14944 18.926 16
      vertex 5.84042 17.975 16
      vertex 9.45 16.3679 16
    endloop
  endfacet
  facet normal 0 0 1
    outer loop
      vertex 2.08012 19.791 16
      vertex 5.84042 17.975 16
      vertex 6.14944 18.926 16
    endloop
  endfacet
  facet normal 0 0 1
    outer loop
      vertex 2.08012 19.791 16
      vertex 1.97559 18.7965 16
      vertex 5.84042 17.975 16
    endloop
  endfacet
  facet normal 0 0 1
    outer loop
      vertex 2.08012 19.791 16
      vertex -1.97559 18.7965 16
      vertex 1.97559 18.7965 16
    endloop
  endfacet
  facet normal -0 0 1
    outer loop
      vertex -2.08012 19.791 16
      vertex -1.97559 18.7965 16
      vertex 2.08012 19.791 16
    endloop
  endfacet
  facet normal 0 0 1
    outer loop
      vertex -2.08012 19.791 16
      vertex -5.84042 17.975 16
      vertex -1.97559 18.7965 16
    endloop
  endfacet
  facet normal -0 0 1
    outer loop
      vertex -6.14944 18.926 16
      vertex -5.84042 17.975 16
      vertex -2.08012 19.791 16
    endloop
  endfacet
  facet normal 0 0 1
    outer loop
      vertex -6.14944 18.926 16
      vertex -9.45 16.3679 16
      vertex -5.84042 17.975 16
    endloop
  endfacet
  facet normal -0 0 1
    outer loop
      vertex -9.95 17.2339 16
      vertex -9.45 16.3679 16
      vertex -6.14944 18.926 16
    endloop
  endfacet
  facet normal 0 0 1
    outer loop
      vertex -9.95 17.2339 16
      vertex -12.6466 14.0454 16
      vertex -9.45 16.3679 16
    endloop
  endfacet
  facet normal -0 0 1
    outer loop
      vertex -13.3157 14.7886 16
      vertex -12.6466 14.0454 16
      vertex -9.95 17.2339 16
    endloop
  endfacet
  facet normal 0 0 1
    outer loop
      vertex -13.3157 14.7886 16
      vertex -15.2904 11.1091 16
      vertex -12.6466 14.0454 16
    endloop
  endfacet
  facet normal -0 0 1
    outer loop
      vertex -16.0994 11.6969 16
      vertex -15.2904 11.1091 16
      vertex -13.3157 14.7886 16
    endloop
  endfacet
  facet normal 0 0 1
    outer loop
      vertex -16.0994 11.6969 16
      vertex -17.266 7.68732 16
      vertex -15.2904 11.1091 16
    endloop
  endfacet
  facet normal -0 0 1
    outer loop
      vertex -18.1796 8.09406 16
      vertex -17.266 7.68732 16
      vertex -16.0994 11.6969 16
    endloop
  endfacet
  facet normal 0 0 1
    outer loop
      vertex -18.1796 8.09406 16
      vertex -18.487 3.92953 16
      vertex -17.266 7.68732 16
    endloop
  endfacet
  facet normal -0 0 1
    outer loop
      vertex -19.4651 4.13744 16
      vertex -18.487 3.92953 16
      vertex -18.1796 8.09406 16
    endloop
  endfacet
  facet normal 0 0 1
    outer loop
      vertex -18.487 3.92953 16
      vertex -19.4651 4.13744 16
      vertex -18.9 0 16
    endloop
  endfacet
  facet normal -0 0 1
    outer loop
      vertex 18.487 -3.92953 16
      vertex 19.4651 -4.13744 16
      vertex 18.9 0 16
    endloop
  endfacet
  facet normal 0 0 1
    outer loop
      vertex 18.487 -3.92953 16
      vertex 18.1796 -8.09406 16
      vertex 19.4651 -4.13744 16
    endloop
  endfacet
  facet normal -0 0 1
    outer loop
      vertex 17.266 -7.68732 16
      vertex 18.1796 -8.09406 16
      vertex 18.487 -3.92953 16
    endloop
  endfacet
  facet normal 0 0 1
    outer loop
      vertex 17.266 -7.68732 16
      vertex 16.0994 -11.6969 16
      vertex 18.1796 -8.09406 16
    endloop
  endfacet
  facet normal -0 0 1
    outer loop
      vertex 15.2904 -11.1091 16
      vertex 16.0994 -11.6969 16
      vertex 17.266 -7.68732 16
    endloop
  endfacet
  facet normal 0 0 1
    outer loop
      vertex 15.2904 -11.1091 16
      vertex 13.3157 -14.7886 16
      vertex 16.0994 -11.6969 16
    endloop
  endfacet
  facet normal -0 0 1
    outer loop
      vertex 12.6466 -14.0454 16
      vertex 13.3157 -14.7886 16
      vertex 15.2904 -11.1091 16
    endloop
  endfacet
  facet normal 0 0 1
    outer loop
      vertex 12.6466 -14.0454 16
      vertex 9.95 -17.2339 16
      vertex 13.3157 -14.7886 16
    endloop
  endfacet
  facet normal -0 0 1
    outer loop
      vertex 9.45 -16.3679 16
      vertex 9.95 -17.2339 16
      vertex 12.6466 -14.0454 16
    endloop
  endfacet
  facet normal 0 0 1
    outer loop
      vertex 9.45 -16.3679 16
      vertex 6.14944 -18.926 16
      vertex 9.95 -17.2339 16
    endloop
  endfacet
  facet normal -0 0 1
    outer loop
      vertex 5.84042 -17.975 16
      vertex 6.14944 -18.926 16
      vertex 9.45 -16.3679 16
    endloop
  endfacet
  facet normal 0 0 1
    outer loop
      vertex 5.84042 -17.975 16
      vertex 2.08012 -19.791 16
      vertex 6.14944 -18.926 16
    endloop
  endfacet
  facet normal -0 0 1
    outer loop
      vertex 1.97559 -18.7965 16
      vertex 2.08012 -19.791 16
      vertex 5.84042 -17.975 16
    endloop
  endfacet
  facet normal -0 0 1
    outer loop
      vertex -1.97559 -18.7965 16
      vertex 2.08012 -19.791 16
      vertex 1.97559 -18.7965 16
    endloop
  endfacet
  facet normal 0 0 1
    outer loop
      vertex -1.97559 -18.7965 16
      vertex -2.08012 -19.791 16
      vertex 2.08012 -19.791 16
    endloop
  endfacet
  facet normal 0 0 1
    outer loop
      vertex -5.84042 -17.975 16
      vertex -2.08012 -19.791 16
      vertex -1.97559 -18.7965 16
    endloop
  endfacet
  facet normal 0 0 1
    outer loop
      vertex -5.84042 -17.975 16
      vertex -6.14944 -18.926 16
      vertex -2.08012 -19.791 16
    endloop
  endfacet
  facet normal 0 0 1
    outer loop
      vertex -9.45 -16.3679 16
      vertex -6.14944 -18.926 16
      vertex -5.84042 -17.975 16
    endloop
  endfacet
  facet normal 0 0 1
    outer loop
      vertex -9.45 -16.3679 16
      vertex -9.95 -17.2339 16
      vertex -6.14944 -18.926 16
    endloop
  endfacet
  facet normal 0 0 1
    outer loop
      vertex -12.6466 -14.0454 16
      vertex -9.95 -17.2339 16
      vertex -9.45 -16.3679 16
    endloop
  endfacet
  facet normal 0 0 1
    outer loop
      vertex -12.6466 -14.0454 16
      vertex -13.3157 -14.7886 16
      vertex -9.95 -17.2339 16
    endloop
  endfacet
  facet normal 0 0 1
    outer loop
      vertex -15.2904 -11.1091 16
      vertex -13.3157 -14.7886 16
      vertex -12.6466 -14.0454 16
    endloop
  endfacet
  facet normal 0 0 1
    outer loop
      vertex -15.2904 -11.1091 16
      vertex -16.0994 -11.6969 16
      vertex -13.3157 -14.7886 16
    endloop
  endfacet
  facet normal 0 0 1
    outer loop
      vertex -17.266 -7.68732 16
      vertex -16.0994 -11.6969 16
      vertex -15.2904 -11.1091 16
    endloop
  endfacet
  facet normal 0 0 1
    outer loop
      vertex -17.266 -7.68732 16
      vertex -18.1796 -8.09406 16
      vertex -16.0994 -11.6969 16
    endloop
  endfacet
  facet normal 0 0 1
    outer loop
      vertex -18.487 -3.92953 16
      vertex -18.1796 -8.09406 16
      vertex -17.266 -7.68732 16
    endloop
  endfacet
  facet normal 0 0 1
    outer loop
      vertex -19.4651 -4.13744 16
      vertex -18.487 -3.92953 16
      vertex -18.9 0 16
    endloop
  endfacet
  facet normal 0 0 1
    outer loop
      vertex -19.9 0 16
      vertex -18.9 0 16
      vertex -19.4651 4.13744 16
    endloop
  endfacet
  facet normal 0 0 1
    outer loop
      vertex -18.487 -3.92953 16
      vertex -19.4651 -4.13744 16
      vertex -18.1796 -8.09406 16
    endloop
  endfacet
  facet normal 0 0 1
    outer loop
      vertex -18.9 0 16
      vertex -19.9 0 16
      vertex -19.4651 -4.13744 16
    endloop
  endfacet
  facet normal 0 -1 0
    outer loop
      vertex -2.08012 -19.791 0
      vertex 2.08012 -19.791 16
      vertex -2.08012 -19.791 16
    endloop
  endfacet
  facet normal 0 -1 -0
    outer loop
      vertex 2.08012 -19.791 16
      vertex -2.08012 -19.791 0
      vertex 2.08012 -19.791 0
    endloop
  endfacet
  facet normal 0.866015 0.500018 0
    outer loop
      vertex 18.1796 8.09406 16
      vertex 16.0994 11.6969 0
      vertex 16.0994 11.6969 16
    endloop
  endfacet
  facet normal 0.866015 0.500018 0
    outer loop
      vertex 16.0994 11.6969 0
      vertex 18.1796 8.09406 16
      vertex 18.1796 8.09406 0
    endloop
  endfacet
  facet normal 0.951062 -0.308999 0
    outer loop
      vertex 18.1796 -8.09406 16
      vertex 19.4651 -4.13744 0
      vertex 19.4651 -4.13744 16
    endloop
  endfacet
  facet normal 0.951062 -0.308999 0
    outer loop
      vertex 19.4651 -4.13744 0
      vertex 18.1796 -8.09406 16
      vertex 18.1796 -8.09406 0
    endloop
  endfacet
  facet normal 0.406733 -0.913547 0
    outer loop
      vertex 6.14944 -18.926 0
      vertex 9.95 -17.2339 16
      vertex 6.14944 -18.926 16
    endloop
  endfacet
  facet normal 0.406733 -0.913547 0
    outer loop
      vertex 9.95 -17.2339 16
      vertex 6.14944 -18.926 0
      vertex 9.95 -17.2339 0
    endloop
  endfacet
  facet normal -0.406733 -0.913547 0
    outer loop
      vertex -9.95 -17.2339 0
      vertex -6.14944 -18.926 16
      vertex -9.95 -17.2339 16
    endloop
  endfacet
  facet normal -0.406733 -0.913547 -0
    outer loop
      vertex -6.14944 -18.926 16
      vertex -9.95 -17.2339 0
      vertex -6.14944 -18.926 0
    endloop
  endfacet
  facet normal -0.743154 0.66912 0
    outer loop
      vertex -16.0994 11.6969 0
      vertex -13.3157 14.7886 16
      vertex -13.3157 14.7886 0
    endloop
  endfacet
  facet normal -0.743154 0.66912 0
    outer loop
      vertex -13.3157 14.7886 16
      vertex -16.0994 11.6969 0
      vertex -16.0994 11.6969 16
    endloop
  endfacet
  facet normal 0.587781 -0.80902 0
    outer loop
      vertex 9.95 -17.2339 0
      vertex 13.3157 -14.7886 16
      vertex 9.95 -17.2339 16
    endloop
  endfacet
  facet normal 0.587781 -0.80902 0
    outer loop
      vertex 13.3157 -14.7886 16
      vertex 9.95 -17.2339 0
      vertex 13.3157 -14.7886 0
    endloop
  endfacet
  facet normal -0.587781 -0.80902 0
    outer loop
      vertex -13.3157 -14.7886 0
      vertex -9.95 -17.2339 16
      vertex -13.3157 -14.7886 16
    endloop
  endfacet
  facet normal -0.587781 -0.80902 -0
    outer loop
      vertex -9.95 -17.2339 16
      vertex -13.3157 -14.7886 0
      vertex -9.95 -17.2339 0
    endloop
  endfacet
  facet normal 0 1 -0
    outer loop
      vertex 2.08012 19.791 0
      vertex -2.08012 19.791 16
      vertex 2.08012 19.791 16
    endloop
  endfacet
  facet normal 0 1 0
    outer loop
      vertex -2.08012 19.791 16
      vertex 2.08012 19.791 0
      vertex -2.08012 19.791 0
    endloop
  endfacet
  facet normal 0.587781 0.80902 -0
    outer loop
      vertex 13.3157 14.7886 0
      vertex 9.95 17.2339 16
      vertex 13.3157 14.7886 16
    endloop
  endfacet
  facet normal 0.587781 0.80902 0
    outer loop
      vertex 9.95 17.2339 16
      vertex 13.3157 14.7886 0
      vertex 9.95 17.2339 0
    endloop
  endfacet
  facet normal 0.743154 -0.66912 0
    outer loop
      vertex 13.3157 -14.7886 16
      vertex 16.0994 -11.6969 0
      vertex 16.0994 -11.6969 16
    endloop
  endfacet
  facet normal 0.743154 -0.66912 0
    outer loop
      vertex 16.0994 -11.6969 0
      vertex 13.3157 -14.7886 16
      vertex 13.3157 -14.7886 0
    endloop
  endfacet
  facet normal -0.406733 0.913547 0
    outer loop
      vertex -6.14944 18.926 0
      vertex -9.95 17.2339 16
      vertex -6.14944 18.926 16
    endloop
  endfacet
  facet normal -0.406733 0.913547 0
    outer loop
      vertex -9.95 17.2339 16
      vertex -6.14944 18.926 0
      vertex -9.95 17.2339 0
    endloop
  endfacet
  facet normal 0 0 -1
    outer loop
      vertex 19.4651 -4.13744 0
      vertex 19.4651 4.13744 0
      vertex 19.9 0 0
    endloop
  endfacet
  facet normal 0 0 -1
    outer loop
      vertex 18.1796 -8.09406 0
      vertex 19.4651 4.13744 0
      vertex 19.4651 -4.13744 0
    endloop
  endfacet
  facet normal 0 0 -1
    outer loop
      vertex 18.1796 -8.09406 0
      vertex 18.1796 8.09406 0
      vertex 19.4651 4.13744 0
    endloop
  endfacet
  facet normal 0 0 -1
    outer loop
      vertex 16.0994 -11.6969 0
      vertex 18.1796 8.09406 0
      vertex 18.1796 -8.09406 0
    endloop
  endfacet
  facet normal 0 0 -1
    outer loop
      vertex 16.0994 -11.6969 0
      vertex 16.0994 11.6969 0
      vertex 18.1796 8.09406 0
    endloop
  endfacet
  facet normal 0 0 -1
    outer loop
      vertex 13.3157 -14.7886 0
      vertex 16.0994 11.6969 0
      vertex 16.0994 -11.6969 0
    endloop
  endfacet
  facet normal 0 0 -1
    outer loop
      vertex 13.3157 -14.7886 0
      vertex 13.3157 14.7886 0
      vertex 16.0994 11.6969 0
    endloop
  endfacet
  facet normal 0 0 -1
    outer loop
      vertex 9.95 -17.2339 0
      vertex 13.3157 14.7886 0
      vertex 13.3157 -14.7886 0
    endloop
  endfacet
  facet normal 0 0 -1
    outer loop
      vertex 9.95 -17.2339 0
      vertex 9.95 17.2339 0
      vertex 13.3157 14.7886 0
    endloop
  endfacet
  facet normal 0 0 -1
    outer loop
      vertex 6.14944 -18.926 0
      vertex 9.95 17.2339 0
      vertex 9.95 -17.2339 0
    endloop
  endfacet
  facet normal 0 0 -1
    outer loop
      vertex 6.14944 -18.926 0
      vertex 6.14944 18.926 0
      vertex 9.95 17.2339 0
    endloop
  endfacet
  facet normal 0 0 -1
    outer loop
      vertex 2.08012 -19.791 0
      vertex 6.14944 18.926 0
      vertex 6.14944 -18.926 0
    endloop
  endfacet
  facet normal 0 0 -1
    outer loop
      vertex 2.08012 -19.791 0
      vertex 2.08012 19.791 0
      vertex 6.14944 18.926 0
    endloop
  endfacet
  facet normal 0 0 -1
    outer loop
      vertex -2.08012 -19.791 0
      vertex 2.08012 19.791 0
      vertex 2.08012 -19.791 0
    endloop
  endfacet
  facet normal 0 0 -1
    outer loop
      vertex -2.08012 -19.791 0
      vertex -2.08012 19.791 0
      vertex 2.08012 19.791 0
    endloop
  endfacet
  facet normal 0 0 -1
    outer loop
      vertex -6.14944 -18.926 0
      vertex -2.08012 19.791 0
      vertex -2.08012 -19.791 0
    endloop
  endfacet
  facet normal 0 0 -1
    outer loop
      vertex -6.14944 -18.926 0
      vertex -6.14944 18.926 0
      vertex -2.08012 19.791 0
    endloop
  endfacet
  facet normal 0 0 -1
    outer loop
      vertex -9.95 -17.2339 0
      vertex -6.14944 18.926 0
      vertex -6.14944 -18.926 0
    endloop
  endfacet
  facet normal 0 0 -1
    outer loop
      vertex -9.95 -17.2339 0
      vertex -9.95 17.2339 0
      vertex -6.14944 18.926 0
    endloop
  endfacet
  facet normal 0 0 -1
    outer loop
      vertex -13.3157 -14.7886 0
      vertex -9.95 17.2339 0
      vertex -9.95 -17.2339 0
    endloop
  endfacet
  facet normal 0 0 -1
    outer loop
      vertex -13.3157 -14.7886 0
      vertex -13.3157 14.7886 0
      vertex -9.95 17.2339 0
    endloop
  endfacet
  facet normal 0 0 -1
    outer loop
      vertex -16.0994 -11.6969 0
      vertex -13.3157 14.7886 0
      vertex -13.3157 -14.7886 0
    endloop
  endfacet
  facet normal 0 0 -1
    outer loop
      vertex -16.0994 -11.6969 0
      vertex -16.0994 11.6969 0
      vertex -13.3157 14.7886 0
    endloop
  endfacet
  facet normal 0 0 -1
    outer loop
      vertex -18.1796 -8.09406 0
      vertex -16.0994 11.6969 0
      vertex -16.0994 -11.6969 0
    endloop
  endfacet
  facet normal 0 0 -1
    outer loop
      vertex -18.1796 -8.09406 0
      vertex -18.1796 8.09406 0
      vertex -16.0994 11.6969 0
    endloop
  endfacet
  facet normal 0 0 -1
    outer loop
      vertex -19.4651 -4.13744 0
      vertex -18.1796 8.09406 0
      vertex -18.1796 -8.09406 0
    endloop
  endfacet
  facet normal 0 0 -1
    outer loop
      vertex -19.4651 -4.13744 0
      vertex -19.4651 4.13744 0
      vertex -18.1796 8.09406 0
    endloop
  endfacet
  facet normal 0 -0 -1
    outer loop
      vertex -19.4651 4.13744 0
      vertex -19.4651 -4.13744 0
      vertex -19.9 0 0
    endloop
  endfacet
  facet normal -0.866015 -0.500018 0
    outer loop
      vertex -16.0994 -11.6969 0
      vertex -18.1796 -8.09406 16
      vertex -18.1796 -8.09406 0
    endloop
  endfacet
  facet normal -0.866015 -0.500018 0
    outer loop
      vertex -18.1796 -8.09406 16
      vertex -16.0994 -11.6969 0
      vertex -16.0994 -11.6969 16
    endloop
  endfacet
  facet normal -0.743154 -0.66912 0
    outer loop
      vertex -13.3157 -14.7886 0
      vertex -16.0994 -11.6969 16
      vertex -16.0994 -11.6969 0
    endloop
  endfacet
  facet normal -0.743154 -0.66912 0
    outer loop
      vertex -16.0994 -11.6969 16
      vertex -13.3157 -14.7886 0
      vertex -13.3157 -14.7886 16
    endloop
  endfacet
  facet normal -0.994521 -0.104537 0
    outer loop
      vertex -19.4651 -4.13744 0
      vertex -19.9 0 16
      vertex -19.9 0 0
    endloop
  endfacet
  facet normal -0.994521 -0.104537 0
    outer loop
      vertex -19.9 0 16
      vertex -19.4651 -4.13744 0
      vertex -19.4651 -4.13744 16
    endloop
  endfacet
  facet normal -0.951055 -0.309022 0
    outer loop
      vertex 18.487 3.92953 13
      vertex 17.266 7.68732 16
      vertex 17.266 7.68732 13
    endloop
  endfacet
  facet normal -0.951055 -0.309022 0
    outer loop
      vertex 17.266 7.68732 16
      vertex 18.487 3.92953 13
      vertex 18.487 3.92953 16
    endloop
  endfacet
  facet normal -0.994522 -0.104526 0
    outer loop
      vertex 18.9 0 13
      vertex 18.487 3.92953 16
      vertex 18.487 3.92953 13
    endloop
  endfacet
  facet normal -0.994522 -0.104526 0
    outer loop
      vertex 18.487 3.92953 16
      vertex 18.9 0 13
      vertex 18.9 0 16
    endloop
  endfacet
  facet normal -0.994522 0.104526 0
    outer loop
      vertex 18.487 -3.92953 13
      vertex 18.9 0 16
      vertex 18.9 0 13
    endloop
  endfacet
  facet normal -0.994522 0.104526 0
    outer loop
      vertex 18.9 0 16
      vertex 18.487 -3.92953 13
      vertex 18.487 -3.92953 16
    endloop
  endfacet
  facet normal 0.207913 0.978147 -0
    outer loop
      vertex -1.97559 -18.7965 13
      vertex -5.84042 -17.975 16
      vertex -1.97559 -18.7965 16
    endloop
  endfacet
  facet normal 0.207913 0.978147 0
    outer loop
      vertex -5.84042 -17.975 16
      vertex -1.97559 -18.7965 13
      vertex -5.84042 -17.975 13
    endloop
  endfacet
  facet normal -0.951055 0.309022 0
    outer loop
      vertex 17.266 -7.68732 13
      vertex 18.487 -3.92953 16
      vertex 18.487 -3.92953 13
    endloop
  endfacet
  facet normal -0.951055 0.309022 0
    outer loop
      vertex 18.487 -3.92953 16
      vertex 17.266 -7.68732 13
      vertex 17.266 -7.68732 16
    endloop
  endfacet
  facet normal 0.866022 0.500007 0
    outer loop
      vertex -15.2904 -11.1091 16
      vertex -17.266 -7.68732 13
      vertex -17.266 -7.68732 16
    endloop
  endfacet
  facet normal 0.866022 0.500007 0
    outer loop
      vertex -17.266 -7.68732 13
      vertex -15.2904 -11.1091 16
      vertex -15.2904 -11.1091 13
    endloop
  endfacet
  facet normal 0.587791 0.809013 -0
    outer loop
      vertex -9.45 -16.3679 13
      vertex -12.6466 -14.0454 16
      vertex -9.45 -16.3679 16
    endloop
  endfacet
  facet normal 0.587791 0.809013 0
    outer loop
      vertex -12.6466 -14.0454 16
      vertex -9.45 -16.3679 13
      vertex -12.6466 -14.0454 13
    endloop
  endfacet
  facet normal -0.406739 -0.913544 0
    outer loop
      vertex 5.84042 17.975 13
      vertex 9.45 16.3679 16
      vertex 5.84042 17.975 16
    endloop
  endfacet
  facet normal -0.406739 -0.913544 -0
    outer loop
      vertex 9.45 16.3679 16
      vertex 5.84042 17.975 13
      vertex 9.45 16.3679 13
    endloop
  endfacet
  facet normal -0.587791 0.809013 0
    outer loop
      vertex 12.6466 -14.0454 13
      vertex 9.45 -16.3679 16
      vertex 12.6466 -14.0454 16
    endloop
  endfacet
  facet normal -0.587791 0.809013 0
    outer loop
      vertex 9.45 -16.3679 16
      vertex 12.6466 -14.0454 13
      vertex 9.45 -16.3679 13
    endloop
  endfacet
  facet normal 0.587791 -0.809013 0
    outer loop
      vertex -12.6466 14.0454 13
      vertex -9.45 16.3679 16
      vertex -12.6466 14.0454 16
    endloop
  endfacet
  facet normal 0.587791 -0.809013 0
    outer loop
      vertex -9.45 16.3679 16
      vertex -12.6466 14.0454 13
      vertex -9.45 16.3679 13
    endloop
  endfacet
  facet normal 0.951055 0.309022 0
    outer loop
      vertex -17.266 -7.68732 16
      vertex -18.487 -3.92953 13
      vertex -18.487 -3.92953 16
    endloop
  endfacet
  facet normal 0.951055 0.309022 0
    outer loop
      vertex -18.487 -3.92953 13
      vertex -17.266 -7.68732 16
      vertex -17.266 -7.68732 13
    endloop
  endfacet
  facet normal -0.866022 0.500007 0
    outer loop
      vertex 15.2904 -11.1091 13
      vertex 17.266 -7.68732 16
      vertex 17.266 -7.68732 13
    endloop
  endfacet
  facet normal -0.866022 0.500007 0
    outer loop
      vertex 17.266 -7.68732 16
      vertex 15.2904 -11.1091 13
      vertex 15.2904 -11.1091 16
    endloop
  endfacet
  facet normal 0 -1 0
    outer loop
      vertex -1.97559 18.7965 13
      vertex 1.97559 18.7965 16
      vertex -1.97559 18.7965 16
    endloop
  endfacet
  facet normal 0 -1 -0
    outer loop
      vertex 1.97559 18.7965 16
      vertex -1.97559 18.7965 13
      vertex 1.97559 18.7965 13
    endloop
  endfacet
  facet normal 0.951055 -0.309022 0
    outer loop
      vertex -18.487 3.92953 16
      vertex -17.266 7.68732 13
      vertex -17.266 7.68732 16
    endloop
  endfacet
  facet normal 0.951055 -0.309022 0
    outer loop
      vertex -17.266 7.68732 13
      vertex -18.487 3.92953 16
      vertex -18.487 3.92953 13
    endloop
  endfacet
  facet normal 0.866022 -0.500007 0
    outer loop
      vertex -17.266 7.68732 16
      vertex -15.2904 11.1091 13
      vertex -15.2904 11.1091 16
    endloop
  endfacet
  facet normal 0.866022 -0.500007 0
    outer loop
      vertex -15.2904 11.1091 13
      vertex -17.266 7.68732 16
      vertex -17.266 7.68732 13
    endloop
  endfacet
  facet normal 0.207913 -0.978147 0
    outer loop
      vertex -5.84042 17.975 13
      vertex -1.97559 18.7965 16
      vertex -5.84042 17.975 16
    endloop
  endfacet
  facet normal 0.207913 -0.978147 0
    outer loop
      vertex -1.97559 18.7965 16
      vertex -5.84042 17.975 13
      vertex -1.97559 18.7965 13
    endloop
  endfacet
  facet normal -0.207913 0.978147 0
    outer loop
      vertex 5.84042 -17.975 13
      vertex 1.97559 -18.7965 16
      vertex 5.84042 -17.975 16
    endloop
  endfacet
  facet normal -0.207913 0.978147 0
    outer loop
      vertex 1.97559 -18.7965 16
      vertex 5.84042 -17.975 13
      vertex 1.97559 -18.7965 13
    endloop
  endfacet
  facet normal -0.743152 0.669123 0
    outer loop
      vertex 12.6466 -14.0454 13
      vertex 15.2904 -11.1091 16
      vertex 15.2904 -11.1091 13
    endloop
  endfacet
  facet normal -0.743152 0.669123 0
    outer loop
      vertex 15.2904 -11.1091 16
      vertex 12.6466 -14.0454 13
      vertex 12.6466 -14.0454 16
    endloop
  endfacet
  facet normal 0.406739 -0.913544 0
    outer loop
      vertex -9.45 16.3679 13
      vertex -5.84042 17.975 16
      vertex -9.45 16.3679 16
    endloop
  endfacet
  facet normal 0.406739 -0.913544 0
    outer loop
      vertex -5.84042 17.975 16
      vertex -9.45 16.3679 13
      vertex -5.84042 17.975 13
    endloop
  endfacet
  facet normal -0.406739 0.913544 0
    outer loop
      vertex 9.45 -16.3679 13
      vertex 5.84042 -17.975 16
      vertex 9.45 -16.3679 16
    endloop
  endfacet
  facet normal -0.406739 0.913544 0
    outer loop
      vertex 5.84042 -17.975 16
      vertex 9.45 -16.3679 13
      vertex 5.84042 -17.975 13
    endloop
  endfacet
  facet normal 0.406739 0.913544 -0
    outer loop
      vertex -5.84042 -17.975 13
      vertex -9.45 -16.3679 16
      vertex -5.84042 -17.975 16
    endloop
  endfacet
  facet normal 0.406739 0.913544 0
    outer loop
      vertex -9.45 -16.3679 16
      vertex -5.84042 -17.975 13
      vertex -9.45 -16.3679 13
    endloop
  endfacet
  facet normal -0.587791 -0.809013 0
    outer loop
      vertex 9.45 16.3679 13
      vertex 12.6466 14.0454 16
      vertex 9.45 16.3679 16
    endloop
  endfacet
  facet normal -0.587791 -0.809013 -0
    outer loop
      vertex 12.6466 14.0454 16
      vertex 9.45 16.3679 13
      vertex 12.6466 14.0454 13
    endloop
  endfacet
  facet normal -0.743152 -0.669123 0
    outer loop
      vertex 15.2904 11.1091 13
      vertex 12.6466 14.0454 16
      vertex 12.6466 14.0454 13
    endloop
  endfacet
  facet normal -0.743152 -0.669123 0
    outer loop
      vertex 12.6466 14.0454 16
      vertex 15.2904 11.1091 13
      vertex 15.2904 11.1091 16
    endloop
  endfacet
  facet normal -0.207913 -0.978147 0
    outer loop
      vertex 1.97559 18.7965 13
      vertex 5.84042 17.975 16
      vertex 1.97559 18.7965 16
    endloop
  endfacet
  facet normal -0.207913 -0.978147 -0
    outer loop
      vertex 5.84042 17.975 16
      vertex 1.97559 18.7965 13
      vertex 5.84042 17.975 13
    endloop
  endfacet
  facet normal 0.994522 -0.104526 0
    outer loop
      vertex -18.9 0 16
      vertex -18.487 3.92953 13
      vertex -18.487 3.92953 16
    endloop
  endfacet
  facet normal 0.994522 -0.104526 0
    outer loop
      vertex -18.487 3.92953 13
      vertex -18.9 0 16
      vertex -18.9 0 13
    endloop
  endfacet
  facet normal -0.866022 -0.500007 0
    outer loop
      vertex 17.266 7.68732 13
      vertex 15.2904 11.1091 16
      vertex 15.2904 11.1091 13
    endloop
  endfacet
  facet normal -0.866022 -0.500007 0
    outer loop
      vertex 15.2904 11.1091 16
      vertex 17.266 7.68732 13
      vertex 17.266 7.68732 16
    endloop
  endfacet
  facet normal 0 1 -0
    outer loop
      vertex 1.97559 -18.7965 13
      vertex -1.97559 -18.7965 16
      vertex 1.97559 -18.7965 16
    endloop
  endfacet
  facet normal 0 1 0
    outer loop
      vertex -1.97559 -18.7965 16
      vertex 1.97559 -18.7965 13
      vertex -1.97559 -18.7965 13
    endloop
  endfacet
  facet normal 0.994522 0.104526 0
    outer loop
      vertex -18.487 -3.92953 16
      vertex -18.9 0 13
      vertex -18.9 0 16
    endloop
  endfacet
  facet normal 0.994522 0.104526 0
    outer loop
      vertex -18.9 0 13
      vertex -18.487 -3.92953 16
      vertex -18.487 -3.92953 13
    endloop
  endfacet
  facet normal 0.743152 0.669123 0
    outer loop
      vertex -12.6466 -14.0454 16
      vertex -15.2904 -11.1091 13
      vertex -15.2904 -11.1091 16
    endloop
  endfacet
  facet normal 0.743152 0.669123 0
    outer loop
      vertex -15.2904 -11.1091 13
      vertex -12.6466 -14.0454 16
      vertex -12.6466 -14.0454 13
    endloop
  endfacet
  facet normal 0 0 1
    outer loop
      vertex -1.41154 -3.87595 13
      vertex -4.1843 -2.30975 13
      vertex -3.14495 -4.63629 13
    endloop
  endfacet
  facet normal -0 0 1
    outer loop
      vertex -5.21959 -3.89437 13
      vertex -3.14495 -4.63629 13
      vertex -4.1843 -2.30975 13
    endloop
  endfacet
  facet normal 0 0 1
    outer loop
      vertex -3.14495 -4.63629 13
      vertex -5.21959 -3.89437 13
      vertex -4.53756 -5.91828 13
    endloop
  endfacet
  facet normal -0 0 1
    outer loop
      vertex -6.7133 -5.05697 13
      vertex -4.53756 -5.91828 13
      vertex -5.21959 -3.89437 13
    endloop
  endfacet
  facet normal 0 0 1
    outer loop
      vertex -4.53756 -5.91828 13
      vertex -6.7133 -5.05697 13
      vertex -5.43845 -7.58298 13
    endloop
  endfacet
  facet normal -0 0 1
    outer loop
      vertex -8.50358 -5.67158 13
      vertex -5.43845 -7.58298 13
      vertex -6.7133 -5.05697 13
    endloop
  endfacet
  facet normal 0 0 1
    outer loop
      vertex -5.43845 -7.58298 13
      vertex -8.50358 -5.67158 13
      vertex -5.75 -9.45 13
    endloop
  endfacet
  facet normal -0 0 1
    outer loop
      vertex -10.3964 -5.67158 13
      vertex -5.75 -9.45 13
      vertex -8.50358 -5.67158 13
    endloop
  endfacet
  facet normal 0 0 1
    outer loop
      vertex -5.75 -9.45 13
      vertex -9.45 -16.3679 13
      vertex -5.84042 -17.975 13
    endloop
  endfacet
  facet normal 0 0 1
    outer loop
      vertex -5.75 -9.45 13
      vertex -10.3964 -5.67158 13
      vertex -12.6466 -14.0454 13
    endloop
  endfacet
  facet normal 0 0 1
    outer loop
      vertex -15.2904 -11.1091 13
      vertex -10.3964 -5.67158 13
      vertex -12.1867 -5.05697 13
    endloop
  endfacet
  facet normal 0 0 1
    outer loop
      vertex -5.75 -9.45 13
      vertex -12.6466 -14.0454 13
      vertex -9.45 -16.3679 13
    endloop
  endfacet
  facet normal 0 0 1
    outer loop
      vertex -17.266 -7.68732 13
      vertex -12.1867 -5.05697 13
      vertex -13.6804 -3.89437 13
    endloop
  endfacet
  facet normal 0 0 1
    outer loop
      vertex -18.487 -3.92953 13
      vertex -13.6804 -3.89437 13
      vertex -14.7157 -2.30975 13
    endloop
  endfacet
  facet normal 0 0 1
    outer loop
      vertex -18.487 -3.92953 13
      vertex -14.7157 -2.30975 13
      vertex -15.1804 -0.474831 13
    endloop
  endfacet
  facet normal 0 0 1
    outer loop
      vertex -10.3964 -5.67158 13
      vertex -15.2904 -11.1091 13
      vertex -12.6466 -14.0454 13
    endloop
  endfacet
  facet normal 0 0 1
    outer loop
      vertex -14.2637 3.14495 13
      vertex -18.487 3.92953 13
      vertex -15.0241 1.41154 13
    endloop
  endfacet
  facet normal 0 0 1
    outer loop
      vertex -18.9 0 13
      vertex -15.0241 1.41154 13
      vertex -18.487 3.92953 13
    endloop
  endfacet
  facet normal 0 0 1
    outer loop
      vertex -12.1867 -5.05697 13
      vertex -17.266 -7.68732 13
      vertex -15.2904 -11.1091 13
    endloop
  endfacet
  facet normal 0 0 1
    outer loop
      vertex -15.0241 1.41154 13
      vertex -18.9 0 13
      vertex -15.1804 -0.474831 13
    endloop
  endfacet
  facet normal 0 0 1
    outer loop
      vertex -13.6804 -3.89437 13
      vertex -18.487 -3.92953 13
      vertex -17.266 -7.68732 13
    endloop
  endfacet
  facet normal 0 0 1
    outer loop
      vertex -15.1804 -0.474831 13
      vertex -18.9 0 13
      vertex -18.487 -3.92953 13
    endloop
  endfacet
  facet normal 0 0 1
    outer loop
      vertex 12.6466 14.0454 13
      vertex 5.43845 11.317 13
      vertex 5.75 9.45 13
    endloop
  endfacet
  facet normal 0 0 1
    outer loop
      vertex 9.45 16.3679 13
      vertex 4.53756 12.9817 13
      vertex 5.43845 11.317 13
    endloop
  endfacet
  facet normal 0 0 1
    outer loop
      vertex 5.84042 17.975 13
      vertex 3.14495 14.2637 13
      vertex 4.53756 12.9817 13
    endloop
  endfacet
  facet normal 0 0 1
    outer loop
      vertex 1.97559 18.7965 13
      vertex 3.14495 14.2637 13
      vertex 5.84042 17.975 13
    endloop
  endfacet
  facet normal 0 0 1
    outer loop
      vertex 1.97559 18.7965 13
      vertex 1.41154 15.0241 13
      vertex 3.14495 14.2637 13
    endloop
  endfacet
  facet normal 0 0 1
    outer loop
      vertex 1.97559 18.7965 13
      vertex -0.474831 15.1804 13
      vertex 1.41154 15.0241 13
    endloop
  endfacet
  facet normal -0 0 1
    outer loop
      vertex -1.97559 18.7965 13
      vertex -0.474831 15.1804 13
      vertex 1.97559 18.7965 13
    endloop
  endfacet
  facet normal 0 0 1
    outer loop
      vertex -1.97559 18.7965 13
      vertex -2.30975 14.7157 13
      vertex -0.474831 15.1804 13
    endloop
  endfacet
  facet normal -0 0 1
    outer loop
      vertex -5.84042 17.975 13
      vertex -2.30975 14.7157 13
      vertex -1.97559 18.7965 13
    endloop
  endfacet
  facet normal 0 0 1
    outer loop
      vertex -2.30975 14.7157 13
      vertex -5.84042 17.975 13
      vertex -3.89437 13.6804 13
    endloop
  endfacet
  facet normal 0 0 1
    outer loop
      vertex -5.05697 12.1867 13
      vertex -9.45 16.3679 13
      vertex -5.67158 10.3964 13
    endloop
  endfacet
  facet normal 0 0 1
    outer loop
      vertex -3.89437 13.6804 13
      vertex -9.45 16.3679 13
      vertex -5.05697 12.1867 13
    endloop
  endfacet
  facet normal -0 0 1
    outer loop
      vertex -9.45 16.3679 13
      vertex -3.89437 13.6804 13
      vertex -5.84042 17.975 13
    endloop
  endfacet
  facet normal -0 0 1
    outer loop
      vertex 15.1804 0.474831 13
      vertex 18.9 0 13
      vertex 18.487 3.92953 13
    endloop
  endfacet
  facet normal 0 0 1
    outer loop
      vertex 13.6804 3.89437 13
      vertex 18.487 3.92953 13
      vertex 17.266 7.68732 13
    endloop
  endfacet
  facet normal 0 0 1
    outer loop
      vertex 15.0241 -1.41154 13
      vertex 18.9 0 13
      vertex 15.1804 0.474831 13
    endloop
  endfacet
  facet normal 0 0 1
    outer loop
      vertex 12.1867 5.05697 13
      vertex 17.266 7.68732 13
      vertex 15.2904 11.1091 13
    endloop
  endfacet
  facet normal 0 0 1
    outer loop
      vertex 18.9 0 13
      vertex 15.0241 -1.41154 13
      vertex 18.487 -3.92953 13
    endloop
  endfacet
  facet normal -0 0 1
    outer loop
      vertex 14.2637 -3.14495 13
      vertex 18.487 -3.92953 13
      vertex 15.0241 -1.41154 13
    endloop
  endfacet
  facet normal 0 0 1
    outer loop
      vertex 18.487 3.92953 13
      vertex 14.7157 2.30975 13
      vertex 15.1804 0.474831 13
    endloop
  endfacet
  facet normal 0 0 1
    outer loop
      vertex 18.487 3.92953 13
      vertex 13.6804 3.89437 13
      vertex 14.7157 2.30975 13
    endloop
  endfacet
  facet normal 0 0 1
    outer loop
      vertex 10.3964 5.67158 13
      vertex 15.2904 11.1091 13
      vertex 12.6466 14.0454 13
    endloop
  endfacet
  facet normal 0 0 1
    outer loop
      vertex 17.266 7.68732 13
      vertex 12.1867 5.05697 13
      vertex 13.6804 3.89437 13
    endloop
  endfacet
  facet normal 0 0 1
    outer loop
      vertex 15.2904 11.1091 13
      vertex 10.3964 5.67158 13
      vertex 12.1867 5.05697 13
    endloop
  endfacet
  facet normal 0 0 1
    outer loop
      vertex 5.43845 11.317 13
      vertex 12.6466 14.0454 13
      vertex 9.45 16.3679 13
    endloop
  endfacet
  facet normal 0 0 1
    outer loop
      vertex 12.6466 14.0454 13
      vertex 5.75 9.45 13
      vertex 10.3964 5.67158 13
    endloop
  endfacet
  facet normal 0 0 1
    outer loop
      vertex 10.3964 5.67158 13
      vertex 5.75 9.45 13
      vertex 8.50358 5.67158 13
    endloop
  endfacet
  facet normal 0 0 1
    outer loop
      vertex 4.53756 12.9817 13
      vertex 9.45 16.3679 13
      vertex 5.84042 17.975 13
    endloop
  endfacet
  facet normal -0 0 1
    outer loop
      vertex 5.43845 7.58298 13
      vertex 8.50358 5.67158 13
      vertex 5.75 9.45 13
    endloop
  endfacet
  facet normal 0 0 1
    outer loop
      vertex 8.50358 5.67158 13
      vertex 5.43845 7.58298 13
      vertex 6.7133 5.05697 13
    endloop
  endfacet
  facet normal -0 0 1
    outer loop
      vertex 4.53756 5.91828 13
      vertex 6.7133 5.05697 13
      vertex 5.43845 7.58298 13
    endloop
  endfacet
  facet normal 0 0 1
    outer loop
      vertex 6.7133 5.05697 13
      vertex 4.53756 5.91828 13
      vertex 5.21959 3.89437 13
    endloop
  endfacet
  facet normal -0 0 1
    outer loop
      vertex 3.14495 4.63629 13
      vertex 5.21959 3.89437 13
      vertex 4.53756 5.91828 13
    endloop
  endfacet
  facet normal 0 0 1
    outer loop
      vertex 5.21959 3.89437 13
      vertex 3.14495 4.63629 13
      vertex 4.1843 2.30975 13
    endloop
  endfacet
  facet normal -0 0 1
    outer loop
      vertex 1.41154 3.87595 13
      vertex 4.1843 2.30975 13
      vertex 3.14495 4.63629 13
    endloop
  endfacet
  facet normal 0 0 1
    outer loop
      vertex 18.487 -3.92953 13
      vertex 14.2637 -3.14495 13
      vertex 17.266 -7.68732 13
    endloop
  endfacet
  facet normal -0 0 1
    outer loop
      vertex 12.9817 -4.53756 13
      vertex 17.266 -7.68732 13
      vertex 14.2637 -3.14495 13
    endloop
  endfacet
  facet normal 0 0 1
    outer loop
      vertex 17.266 -7.68732 13
      vertex 12.9817 -4.53756 13
      vertex 15.2904 -11.1091 13
    endloop
  endfacet
  facet normal -0 0 1
    outer loop
      vertex 11.317 -5.43845 13
      vertex 15.2904 -11.1091 13
      vertex 12.9817 -4.53756 13
    endloop
  endfacet
  facet normal -0 0 1
    outer loop
      vertex 9.45 -5.75 13
      vertex 15.2904 -11.1091 13
      vertex 11.317 -5.43845 13
    endloop
  endfacet
  facet normal 0 0 1
    outer loop
      vertex 15.2904 -11.1091 13
      vertex 9.45 -5.75 13
      vertex 12.6466 -14.0454 13
    endloop
  endfacet
  facet normal -0 0 1
    outer loop
      vertex 5.67158 -10.3964 13
      vertex 12.6466 -14.0454 13
      vertex 9.45 -5.75 13
    endloop
  endfacet
  facet normal 0 0 1
    outer loop
      vertex 5.67158 -8.50358 13
      vertex 9.45 -5.75 13
      vertex 7.58298 -5.43845 13
    endloop
  endfacet
  facet normal 0 0 1
    outer loop
      vertex 5.05697 -6.7133 13
      vertex 7.58298 -5.43845 13
      vertex 5.91828 -4.53756 13
    endloop
  endfacet
  facet normal 0 0 1
    outer loop
      vertex 9.45 -5.75 13
      vertex 5.67158 -8.50358 13
      vertex 5.67158 -10.3964 13
    endloop
  endfacet
  facet normal 0 0 1
    outer loop
      vertex 12.6466 -14.0454 13
      vertex 5.67158 -10.3964 13
      vertex 9.45 -16.3679 13
    endloop
  endfacet
  facet normal 0 0 1
    outer loop
      vertex 7.58298 -5.43845 13
      vertex 5.05697 -6.7133 13
      vertex 5.67158 -8.50358 13
    endloop
  endfacet
  facet normal 0 0 1
    outer loop
      vertex 3.89437 -5.21959 13
      vertex 5.91828 -4.53756 13
      vertex 4.63629 -3.14495 13
    endloop
  endfacet
  facet normal 0 0 1
    outer loop
      vertex 5.91828 -4.53756 13
      vertex 3.89437 -5.21959 13
      vertex 5.05697 -6.7133 13
    endloop
  endfacet
  facet normal 0 0 1
    outer loop
      vertex 2.30975 -4.1843 13
      vertex 4.63629 -3.14495 13
      vertex 3.87595 -1.41154 13
    endloop
  endfacet
  facet normal 0 0 1
    outer loop
      vertex 0.474831 -3.71964 13
      vertex 3.87595 -1.41154 13
      vertex 3.71964 0.474831 13
    endloop
  endfacet
  facet normal 0 0 1
    outer loop
      vertex 4.1843 2.30975 13
      vertex 1.41154 3.87595 13
      vertex 3.71964 0.474831 13
    endloop
  endfacet
  facet normal 0 0 1
    outer loop
      vertex 4.63629 -3.14495 13
      vertex 2.30975 -4.1843 13
      vertex 3.89437 -5.21959 13
    endloop
  endfacet
  facet normal -0 0 1
    outer loop
      vertex -0.474831 3.71964 13
      vertex 3.71964 0.474831 13
      vertex 1.41154 3.87595 13
    endloop
  endfacet
  facet normal 0 0 1
    outer loop
      vertex 3.87595 -1.41154 13
      vertex 0.474831 -3.71964 13
      vertex 2.30975 -4.1843 13
    endloop
  endfacet
  facet normal 0 0 1
    outer loop
      vertex 3.71964 0.474831 13
      vertex -0.474831 3.71964 13
      vertex 0.474831 -3.71964 13
    endloop
  endfacet
  facet normal -0 0 1
    outer loop
      vertex -3.71964 -0.474831 13
      vertex 0.474831 -3.71964 13
      vertex -0.474831 3.71964 13
    endloop
  endfacet
  facet normal 0 0 1
    outer loop
      vertex -3.87595 1.41154 13
      vertex -0.474831 3.71964 13
      vertex -2.30975 4.1843 13
    endloop
  endfacet
  facet normal 0 0 1
    outer loop
      vertex 0.474831 -3.71964 13
      vertex -3.71964 -0.474831 13
      vertex -1.41154 -3.87595 13
    endloop
  endfacet
  facet normal -0 0 1
    outer loop
      vertex -4.1843 -2.30975 13
      vertex -1.41154 -3.87595 13
      vertex -3.71964 -0.474831 13
    endloop
  endfacet
  facet normal 0 0 1
    outer loop
      vertex -0.474831 3.71964 13
      vertex -3.87595 1.41154 13
      vertex -3.71964 -0.474831 13
    endloop
  endfacet
  facet normal 0 0 1
    outer loop
      vertex -4.63629 3.14495 13
      vertex -2.30975 4.1843 13
      vertex -3.89437 5.21959 13
    endloop
  endfacet
  facet normal 0 0 1
    outer loop
      vertex -2.30975 4.1843 13
      vertex -4.63629 3.14495 13
      vertex -3.87595 1.41154 13
    endloop
  endfacet
  facet normal 0 0 1
    outer loop
      vertex -5.91828 4.53756 13
      vertex -3.89437 5.21959 13
      vertex -5.05697 6.7133 13
    endloop
  endfacet
  facet normal 0 0 1
    outer loop
      vertex -7.58298 5.43845 13
      vertex -5.05697 6.7133 13
      vertex -5.67158 8.50358 13
    endloop
  endfacet
  facet normal 0 0 1
    outer loop
      vertex -3.89437 5.21959 13
      vertex -5.91828 4.53756 13
      vertex -4.63629 3.14495 13
    endloop
  endfacet
  facet normal -0 0 1
    outer loop
      vertex -12.6466 14.0454 13
      vertex -5.67158 10.3964 13
      vertex -9.45 16.3679 13
    endloop
  endfacet
  facet normal 0 0 1
    outer loop
      vertex -5.05697 6.7133 13
      vertex -7.58298 5.43845 13
      vertex -5.91828 4.53756 13
    endloop
  endfacet
  facet normal 0 -0 1
    outer loop
      vertex -9.45 5.75 13
      vertex -5.67158 10.3964 13
      vertex -12.6466 14.0454 13
    endloop
  endfacet
  facet normal 0 0 1
    outer loop
      vertex -5.67158 8.50358 13
      vertex -9.45 5.75 13
      vertex -7.58298 5.43845 13
    endloop
  endfacet
  facet normal 0 0 1
    outer loop
      vertex -5.67158 10.3964 13
      vertex -9.45 5.75 13
      vertex -5.67158 8.50358 13
    endloop
  endfacet
  facet normal -0 0 1
    outer loop
      vertex -15.2904 11.1091 13
      vertex -9.45 5.75 13
      vertex -12.6466 14.0454 13
    endloop
  endfacet
  facet normal 0 0 1
    outer loop
      vertex -9.45 5.75 13
      vertex -15.2904 11.1091 13
      vertex -11.317 5.43845 13
    endloop
  endfacet
  facet normal 0 0 1
    outer loop
      vertex -11.317 5.43845 13
      vertex -15.2904 11.1091 13
      vertex -12.9817 4.53756 13
    endloop
  endfacet
  facet normal -0 0 1
    outer loop
      vertex -17.266 7.68732 13
      vertex -12.9817 4.53756 13
      vertex -15.2904 11.1091 13
    endloop
  endfacet
  facet normal -0 0 1
    outer loop
      vertex -18.487 3.92953 13
      vertex -14.2637 3.14495 13
      vertex -17.266 7.68732 13
    endloop
  endfacet
  facet normal 0 0 1
    outer loop
      vertex -12.9817 4.53756 13
      vertex -17.266 7.68732 13
      vertex -14.2637 3.14495 13
    endloop
  endfacet
  facet normal -0 0 1
    outer loop
      vertex 5.05697 -12.1867 13
      vertex 9.45 -16.3679 13
      vertex 5.67158 -10.3964 13
    endloop
  endfacet
  facet normal -0 0 1
    outer loop
      vertex 3.89437 -13.6804 13
      vertex 9.45 -16.3679 13
      vertex 5.05697 -12.1867 13
    endloop
  endfacet
  facet normal 0 0 1
    outer loop
      vertex 9.45 -16.3679 13
      vertex 3.89437 -13.6804 13
      vertex 5.84042 -17.975 13
    endloop
  endfacet
  facet normal -0 0 1
    outer loop
      vertex 2.30975 -14.7157 13
      vertex 5.84042 -17.975 13
      vertex 3.89437 -13.6804 13
    endloop
  endfacet
  facet normal 0 0 1
    outer loop
      vertex 2.30975 -14.7157 13
      vertex 1.97559 -18.7965 13
      vertex 5.84042 -17.975 13
    endloop
  endfacet
  facet normal -0 0 1
    outer loop
      vertex 0.474831 -15.1804 13
      vertex 1.97559 -18.7965 13
      vertex 2.30975 -14.7157 13
    endloop
  endfacet
  facet normal 0 0 1
    outer loop
      vertex -1.97559 -18.7965 13
      vertex 0.474831 -15.1804 13
      vertex -1.41154 -15.0241 13
    endloop
  endfacet
  facet normal 0 0 1
    outer loop
      vertex 0.474831 -15.1804 13
      vertex -1.97559 -18.7965 13
      vertex 1.97559 -18.7965 13
    endloop
  endfacet
  facet normal 0 0 1
    outer loop
      vertex -3.14495 -14.2637 13
      vertex -1.97559 -18.7965 13
      vertex -1.41154 -15.0241 13
    endloop
  endfacet
  facet normal 0 0 1
    outer loop
      vertex -5.84042 -17.975 13
      vertex -3.14495 -14.2637 13
      vertex -4.53756 -12.9817 13
    endloop
  endfacet
  facet normal 0 0 1
    outer loop
      vertex -5.84042 -17.975 13
      vertex -4.53756 -12.9817 13
      vertex -5.43845 -11.317 13
    endloop
  endfacet
  facet normal 0 0 1
    outer loop
      vertex -3.14495 -14.2637 13
      vertex -5.84042 -17.975 13
      vertex -1.97559 -18.7965 13
    endloop
  endfacet
  facet normal 0 0 1
    outer loop
      vertex -5.84042 -17.975 13
      vertex -5.43845 -11.317 13
      vertex -5.75 -9.45 13
    endloop
  endfacet
  facet normal 0.743152 -0.669123 0
    outer loop
      vertex -15.2904 11.1091 16
      vertex -12.6466 14.0454 13
      vertex -12.6466 14.0454 16
    endloop
  endfacet
  facet normal 0.743152 -0.669123 0
    outer loop
      vertex -12.6466 14.0454 13
      vertex -15.2904 11.1091 16
      vertex -15.2904 11.1091 13
    endloop
  endfacet
  facet normal -0.986361 -0.164596 0
    outer loop
      vertex 5.75 9.45 2
      vertex 5.43845 11.317 13
      vertex 5.43845 11.317 2
    endloop
  endfacet
  facet normal -0.986361 -0.164596 0
    outer loop
      vertex 5.43845 11.317 13
      vertex 5.75 9.45 2
      vertex 5.75 9.45 13
    endloop
  endfacet
  facet normal 0.54695 0.837165 -0
    outer loop
      vertex -2.30975 4.1843 2
      vertex -3.89437 5.21959 13
      vertex -2.30975 4.1843 13
    endloop
  endfacet
  facet normal 0.54695 0.837165 0
    outer loop
      vertex -3.89437 5.21959 13
      vertex -2.30975 4.1843 2
      vertex -3.89437 5.21959 2
    endloop
  endfacet
  facet normal 0.245503 -0.969396 0
    outer loop
      vertex -2.30975 14.7157 2
      vertex -0.474831 15.1804 13
      vertex -2.30975 14.7157 13
    endloop
  endfacet
  facet normal 0.245503 -0.969396 0
    outer loop
      vertex -0.474831 15.1804 13
      vertex -2.30975 14.7157 2
      vertex -0.474831 15.1804 2
    endloop
  endfacet
  facet normal -0.40172 -0.915762 0
    outer loop
      vertex 1.41154 15.0241 2
      vertex 3.14495 14.2637 13
      vertex 1.41154 15.0241 13
    endloop
  endfacet
  facet normal -0.40172 -0.915762 -0
    outer loop
      vertex 3.14495 14.2637 13
      vertex 1.41154 15.0241 2
      vertex 3.14495 14.2637 2
    endloop
  endfacet
  facet normal 1 -0 0
    outer loop
      vertex -5.67158 8.50358 13
      vertex -5.67158 10.3964 2
      vertex -5.67158 10.3964 13
    endloop
  endfacet
  facet normal 1 0 0
    outer loop
      vertex -5.67158 10.3964 2
      vertex -5.67158 8.50358 13
      vertex -5.67158 8.50358 2
    endloop
  endfacet
  facet normal -0.879474 0.475947 0
    outer loop
      vertex 4.53756 5.91828 2
      vertex 5.43845 7.58298 13
      vertex 5.43845 7.58298 2
    endloop
  endfacet
  facet normal -0.879474 0.475947 0
    outer loop
      vertex 5.43845 7.58298 13
      vertex 4.53756 5.91828 2
      vertex 4.53756 5.91828 13
    endloop
  endfacet
  facet normal 0.245483 0.969401 -0
    outer loop
      vertex -0.474831 3.71964 2
      vertex -2.30975 4.1843 13
      vertex -0.474831 3.71964 13
    endloop
  endfacet
  facet normal 0.245483 0.969401 0
    outer loop
      vertex -2.30975 4.1843 13
      vertex -0.474831 3.71964 2
      vertex -2.30975 4.1843 2
    endloop
  endfacet
  facet normal -0.879474 -0.475947 0
    outer loop
      vertex 5.43845 11.317 2
      vertex 4.53756 12.9817 13
      vertex 4.53756 12.9817 2
    endloop
  endfacet
  facet normal -0.879474 -0.475947 0
    outer loop
      vertex 4.53756 12.9817 13
      vertex 5.43845 11.317 2
      vertex 5.43845 11.317 13
    endloop
  endfacet
  facet normal -0.677285 -0.735721 0
    outer loop
      vertex 3.14495 14.2637 2
      vertex 4.53756 12.9817 13
      vertex 3.14495 14.2637 13
    endloop
  endfacet
  facet normal -0.677285 -0.735721 -0
    outer loop
      vertex 4.53756 12.9817 13
      vertex 3.14495 14.2637 2
      vertex 4.53756 12.9817 2
    endloop
  endfacet
  facet normal 0.945816 0.324702 0
    outer loop
      vertex -5.05697 6.7133 13
      vertex -5.67158 8.50358 2
      vertex -5.67158 8.50358 13
    endloop
  endfacet
  facet normal 0.945816 0.324702 0
    outer loop
      vertex -5.67158 8.50358 2
      vertex -5.05697 6.7133 13
      vertex -5.05697 6.7133 2
    endloop
  endfacet
  facet normal -0.401694 0.915774 0
    outer loop
      vertex 3.14495 4.63629 2
      vertex 1.41154 3.87595 13
      vertex 3.14495 4.63629 13
    endloop
  endfacet
  facet normal -0.401694 0.915774 0
    outer loop
      vertex 1.41154 3.87595 13
      vertex 3.14495 4.63629 2
      vertex 1.41154 3.87595 2
    endloop
  endfacet
  facet normal -0.986361 0.164594 0
    outer loop
      vertex 5.43845 7.58298 2
      vertex 5.75 9.45 13
      vertex 5.75 9.45 2
    endloop
  endfacet
  facet normal -0.986361 0.164594 0
    outer loop
      vertex 5.75 9.45 13
      vertex 5.43845 7.58298 2
      vertex 5.43845 7.58298 13
    endloop
  endfacet
  facet normal 0.945817 -0.324699 0
    outer loop
      vertex -5.67158 10.3964 13
      vertex -5.05697 12.1867 2
      vertex -5.05697 12.1867 13
    endloop
  endfacet
  facet normal 0.945817 -0.324699 0
    outer loop
      vertex -5.05697 12.1867 2
      vertex -5.67158 10.3964 13
      vertex -5.67158 10.3964 2
    endloop
  endfacet
  facet normal 0 0 1
    outer loop
      vertex 5.43845 11.317 2
      vertex 5.43845 7.58298 2
      vertex 5.75 9.45 2
    endloop
  endfacet
  facet normal 0 0 1
    outer loop
      vertex 4.53756 12.9817 2
      vertex 5.43845 7.58298 2
      vertex 5.43845 11.317 2
    endloop
  endfacet
  facet normal 0 0 1
    outer loop
      vertex 4.53756 12.9817 2
      vertex 4.53756 5.91828 2
      vertex 5.43845 7.58298 2
    endloop
  endfacet
  facet normal 0 0 1
    outer loop
      vertex 3.14495 14.2637 2
      vertex 4.53756 5.91828 2
      vertex 4.53756 12.9817 2
    endloop
  endfacet
  facet normal 0 0 1
    outer loop
      vertex 3.14495 14.2637 2
      vertex 3.14495 4.63629 2
      vertex 4.53756 5.91828 2
    endloop
  endfacet
  facet normal 0 0 1
    outer loop
      vertex 1.41154 15.0241 2
      vertex 3.14495 4.63629 2
      vertex 3.14495 14.2637 2
    endloop
  endfacet
  facet normal 0 0 1
    outer loop
      vertex 1.41154 15.0241 2
      vertex 1.41154 3.87595 2
      vertex 3.14495 4.63629 2
    endloop
  endfacet
  facet normal 0 0 1
    outer loop
      vertex -0.474831 15.1804 2
      vertex 1.41154 3.87595 2
      vertex 1.41154 15.0241 2
    endloop
  endfacet
  facet normal 0 0 1
    outer loop
      vertex -0.474831 15.1804 2
      vertex -0.474831 3.71964 2
      vertex 1.41154 3.87595 2
    endloop
  endfacet
  facet normal -0 0 1
    outer loop
      vertex -2.30975 14.7157 2
      vertex -0.474831 3.71964 2
      vertex -0.474831 15.1804 2
    endloop
  endfacet
  facet normal 0 0 1
    outer loop
      vertex -2.30975 14.7157 2
      vertex -2.30975 4.1843 2
      vertex -0.474831 3.71964 2
    endloop
  endfacet
  facet normal -0 0 1
    outer loop
      vertex -3.89437 13.6804 2
      vertex -2.30975 4.1843 2
      vertex -2.30975 14.7157 2
    endloop
  endfacet
  facet normal 0 0 1
    outer loop
      vertex -3.89437 13.6804 2
      vertex -3.89437 5.21959 2
      vertex -2.30975 4.1843 2
    endloop
  endfacet
  facet normal -0 0 1
    outer loop
      vertex -5.05697 12.1867 2
      vertex -3.89437 5.21959 2
      vertex -3.89437 13.6804 2
    endloop
  endfacet
  facet normal 0 0 1
    outer loop
      vertex -5.05697 12.1867 2
      vertex -5.05697 6.7133 2
      vertex -3.89437 5.21959 2
    endloop
  endfacet
  facet normal -0 0 1
    outer loop
      vertex -5.67158 10.3964 2
      vertex -5.05697 6.7133 2
      vertex -5.05697 12.1867 2
    endloop
  endfacet
  facet normal 0 0 1
    outer loop
      vertex -5.05697 6.7133 2
      vertex -5.67158 10.3964 2
      vertex -5.67158 8.50358 2
    endloop
  endfacet
  facet normal -0.0825745 -0.996585 0
    outer loop
      vertex -0.474831 15.1804 2
      vertex 1.41154 15.0241 13
      vertex -0.474831 15.1804 13
    endloop
  endfacet
  facet normal -0.0825745 -0.996585 -0
    outer loop
      vertex 1.41154 15.0241 13
      vertex -0.474831 15.1804 2
      vertex 1.41154 15.0241 2
    endloop
  endfacet
  facet normal -0.677282 0.735723 0
    outer loop
      vertex 4.53756 5.91828 2
      vertex 3.14495 4.63629 13
      vertex 4.53756 5.91828 13
    endloop
  endfacet
  facet normal -0.677282 0.735723 0
    outer loop
      vertex 3.14495 4.63629 13
      vertex 4.53756 5.91828 2
      vertex 3.14495 4.63629 2
    endloop
  endfacet
  facet normal -0.0825798 0.996584 0
    outer loop
      vertex 1.41154 3.87595 2
      vertex -0.474831 3.71964 13
      vertex 1.41154 3.87595 13
    endloop
  endfacet
  facet normal -0.0825798 0.996584 0
    outer loop
      vertex -0.474831 3.71964 13
      vertex 1.41154 3.87595 2
      vertex -0.474831 3.71964 2
    endloop
  endfacet
  facet normal 0.546954 -0.837163 0
    outer loop
      vertex -3.89437 13.6804 2
      vertex -2.30975 14.7157 13
      vertex -3.89437 13.6804 13
    endloop
  endfacet
  facet normal 0.546954 -0.837163 0
    outer loop
      vertex -2.30975 14.7157 13
      vertex -3.89437 13.6804 2
      vertex -2.30975 14.7157 2
    endloop
  endfacet
  facet normal 0.789139 -0.614215 0
    outer loop
      vertex -5.05697 12.1867 13
      vertex -3.89437 13.6804 2
      vertex -3.89437 13.6804 13
    endloop
  endfacet
  facet normal 0.789139 -0.614215 0
    outer loop
      vertex -3.89437 13.6804 2
      vertex -5.05697 12.1867 13
      vertex -5.05697 12.1867 2
    endloop
  endfacet
  facet normal 0.789141 0.614212 0
    outer loop
      vertex -3.89437 5.21959 13
      vertex -5.05697 6.7133 2
      vertex -5.05697 6.7133 13
    endloop
  endfacet
  facet normal 0.789141 0.614212 0
    outer loop
      vertex -5.05697 6.7133 2
      vertex -3.89437 5.21959 13
      vertex -3.89437 5.21959 2
    endloop
  endfacet
  facet normal -0.475947 -0.879474 0
    outer loop
      vertex -7.58298 5.43845 2
      vertex -5.91828 4.53756 13
      vertex -7.58298 5.43845 13
    endloop
  endfacet
  facet normal -0.475947 -0.879474 -0
    outer loop
      vertex -5.91828 4.53756 13
      vertex -7.58298 5.43845 2
      vertex -5.91828 4.53756 2
    endloop
  endfacet
  facet normal 0.475947 -0.879474 0
    outer loop
      vertex -12.9817 4.53756 2
      vertex -11.317 5.43845 13
      vertex -12.9817 4.53756 13
    endloop
  endfacet
  facet normal 0.475947 -0.879474 0
    outer loop
      vertex -11.317 5.43845 13
      vertex -12.9817 4.53756 2
      vertex -11.317 5.43845 2
    endloop
  endfacet
  facet normal 0.164596 -0.986361 0
    outer loop
      vertex -11.317 5.43845 2
      vertex -9.45 5.75 13
      vertex -11.317 5.43845 13
    endloop
  endfacet
  facet normal 0.164596 -0.986361 0
    outer loop
      vertex -9.45 5.75 13
      vertex -11.317 5.43845 2
      vertex -9.45 5.75 2
    endloop
  endfacet
  facet normal 0.735721 -0.677285 0
    outer loop
      vertex -14.2637 3.14495 13
      vertex -12.9817 4.53756 2
      vertex -12.9817 4.53756 13
    endloop
  endfacet
  facet normal 0.735721 -0.677285 0
    outer loop
      vertex -12.9817 4.53756 2
      vertex -14.2637 3.14495 13
      vertex -14.2637 3.14495 2
    endloop
  endfacet
  facet normal 0 1 -0
    outer loop
      vertex -8.50358 -5.67158 2
      vertex -10.3964 -5.67158 13
      vertex -8.50358 -5.67158 13
    endloop
  endfacet
  facet normal 0 1 0
    outer loop
      vertex -10.3964 -5.67158 13
      vertex -8.50358 -5.67158 2
      vertex -10.3964 -5.67158 2
    endloop
  endfacet
  facet normal 0.996585 -0.0825745 0
    outer loop
      vertex -15.1804 -0.474831 13
      vertex -15.0241 1.41154 2
      vertex -15.0241 1.41154 13
    endloop
  endfacet
  facet normal 0.996585 -0.0825745 0
    outer loop
      vertex -15.0241 1.41154 2
      vertex -15.1804 -0.474831 13
      vertex -15.1804 -0.474831 2
    endloop
  endfacet
  facet normal -0.915774 -0.401694 0
    outer loop
      vertex -3.87595 1.41154 2
      vertex -4.63629 3.14495 13
      vertex -4.63629 3.14495 2
    endloop
  endfacet
  facet normal -0.915774 -0.401694 0
    outer loop
      vertex -4.63629 3.14495 13
      vertex -3.87595 1.41154 2
      vertex -3.87595 1.41154 13
    endloop
  endfacet
  facet normal -0.164594 -0.986361 0
    outer loop
      vertex -9.45 5.75 2
      vertex -7.58298 5.43845 13
      vertex -9.45 5.75 13
    endloop
  endfacet
  facet normal -0.164594 -0.986361 -0
    outer loop
      vertex -7.58298 5.43845 13
      vertex -9.45 5.75 2
      vertex -7.58298 5.43845 2
    endloop
  endfacet
  facet normal 0.915762 -0.40172 0
    outer loop
      vertex -15.0241 1.41154 13
      vertex -14.2637 3.14495 2
      vertex -14.2637 3.14495 13
    endloop
  endfacet
  facet normal 0.915762 -0.40172 0
    outer loop
      vertex -14.2637 3.14495 2
      vertex -15.0241 1.41154 13
      vertex -15.0241 1.41154 2
    endloop
  endfacet
  facet normal 0.837163 0.546954 0
    outer loop
      vertex -13.6804 -3.89437 13
      vertex -14.7157 -2.30975 2
      vertex -14.7157 -2.30975 13
    endloop
  endfacet
  facet normal 0.837163 0.546954 0
    outer loop
      vertex -14.7157 -2.30975 2
      vertex -13.6804 -3.89437 13
      vertex -13.6804 -3.89437 2
    endloop
  endfacet
  facet normal -0.996584 -0.0825798 0
    outer loop
      vertex -3.71964 -0.474831 2
      vertex -3.87595 1.41154 13
      vertex -3.87595 1.41154 2
    endloop
  endfacet
  facet normal -0.996584 -0.0825798 0
    outer loop
      vertex -3.87595 1.41154 13
      vertex -3.71964 -0.474831 2
      vertex -3.71964 -0.474831 13
    endloop
  endfacet
  facet normal -0.324702 0.945816 0
    outer loop
      vertex -6.7133 -5.05697 2
      vertex -8.50358 -5.67158 13
      vertex -6.7133 -5.05697 13
    endloop
  endfacet
  facet normal -0.324702 0.945816 0
    outer loop
      vertex -8.50358 -5.67158 13
      vertex -6.7133 -5.05697 2
      vertex -8.50358 -5.67158 2
    endloop
  endfacet
  facet normal 0.969396 0.245503 0
    outer loop
      vertex -14.7157 -2.30975 13
      vertex -15.1804 -0.474831 2
      vertex -15.1804 -0.474831 13
    endloop
  endfacet
  facet normal 0.969396 0.245503 0
    outer loop
      vertex -15.1804 -0.474831 2
      vertex -14.7157 -2.30975 13
      vertex -14.7157 -2.30975 2
    endloop
  endfacet
  facet normal 0 0 1
    outer loop
      vertex -3.87595 1.41154 2
      vertex -4.1843 -2.30975 2
      vertex -3.71964 -0.474831 2
    endloop
  endfacet
  facet normal 0 0 1
    outer loop
      vertex -4.63629 3.14495 2
      vertex -4.1843 -2.30975 2
      vertex -3.87595 1.41154 2
    endloop
  endfacet
  facet normal 0 0 1
    outer loop
      vertex -4.63629 3.14495 2
      vertex -5.21959 -3.89437 2
      vertex -4.1843 -2.30975 2
    endloop
  endfacet
  facet normal 0 0 1
    outer loop
      vertex -5.91828 4.53756 2
      vertex -5.21959 -3.89437 2
      vertex -4.63629 3.14495 2
    endloop
  endfacet
  facet normal 0 0 1
    outer loop
      vertex -5.91828 4.53756 2
      vertex -6.7133 -5.05697 2
      vertex -5.21959 -3.89437 2
    endloop
  endfacet
  facet normal 0 0 1
    outer loop
      vertex -7.58298 5.43845 2
      vertex -6.7133 -5.05697 2
      vertex -5.91828 4.53756 2
    endloop
  endfacet
  facet normal 0 0 1
    outer loop
      vertex -7.58298 5.43845 2
      vertex -8.50358 -5.67158 2
      vertex -6.7133 -5.05697 2
    endloop
  endfacet
  facet normal 0 0 1
    outer loop
      vertex -9.45 5.75 2
      vertex -8.50358 -5.67158 2
      vertex -7.58298 5.43845 2
    endloop
  endfacet
  facet normal 0 0 1
    outer loop
      vertex -9.45 5.75 2
      vertex -10.3964 -5.67158 2
      vertex -8.50358 -5.67158 2
    endloop
  endfacet
  facet normal -0 0 1
    outer loop
      vertex -11.317 5.43845 2
      vertex -10.3964 -5.67158 2
      vertex -9.45 5.75 2
    endloop
  endfacet
  facet normal 0 0 1
    outer loop
      vertex -11.317 5.43845 2
      vertex -12.1867 -5.05697 2
      vertex -10.3964 -5.67158 2
    endloop
  endfacet
  facet normal -0 0 1
    outer loop
      vertex -12.9817 4.53756 2
      vertex -12.1867 -5.05697 2
      vertex -11.317 5.43845 2
    endloop
  endfacet
  facet normal 0 0 1
    outer loop
      vertex -12.9817 4.53756 2
      vertex -13.6804 -3.89437 2
      vertex -12.1867 -5.05697 2
    endloop
  endfacet
  facet normal -0 0 1
    outer loop
      vertex -14.2637 3.14495 2
      vertex -13.6804 -3.89437 2
      vertex -12.9817 4.53756 2
    endloop
  endfacet
  facet normal 0 0 1
    outer loop
      vertex -14.2637 3.14495 2
      vertex -14.7157 -2.30975 2
      vertex -13.6804 -3.89437 2
    endloop
  endfacet
  facet normal -0 0 1
    outer loop
      vertex -15.0241 1.41154 2
      vertex -14.7157 -2.30975 2
      vertex -14.2637 3.14495 2
    endloop
  endfacet
  facet normal 0 0 1
    outer loop
      vertex -14.7157 -2.30975 2
      vertex -15.0241 1.41154 2
      vertex -15.1804 -0.474831 2
    endloop
  endfacet
  facet normal -0.837165 0.54695 0
    outer loop
      vertex -5.21959 -3.89437 2
      vertex -4.1843 -2.30975 13
      vertex -4.1843 -2.30975 2
    endloop
  endfacet
  facet normal -0.837165 0.54695 0
    outer loop
      vertex -4.1843 -2.30975 13
      vertex -5.21959 -3.89437 2
      vertex -5.21959 -3.89437 13
    endloop
  endfacet
  facet normal -0.735723 -0.677282 0
    outer loop
      vertex -4.63629 3.14495 2
      vertex -5.91828 4.53756 13
      vertex -5.91828 4.53756 2
    endloop
  endfacet
  facet normal -0.735723 -0.677282 0
    outer loop
      vertex -5.91828 4.53756 13
      vertex -4.63629 3.14495 2
      vertex -4.63629 3.14495 13
    endloop
  endfacet
  facet normal -0.614212 0.789141 0
    outer loop
      vertex -5.21959 -3.89437 2
      vertex -6.7133 -5.05697 13
      vertex -5.21959 -3.89437 13
    endloop
  endfacet
  facet normal -0.614212 0.789141 0
    outer loop
      vertex -6.7133 -5.05697 13
      vertex -5.21959 -3.89437 2
      vertex -6.7133 -5.05697 2
    endloop
  endfacet
  facet normal -0.969401 0.245483 0
    outer loop
      vertex -4.1843 -2.30975 2
      vertex -3.71964 -0.474831 13
      vertex -3.71964 -0.474831 2
    endloop
  endfacet
  facet normal -0.969401 0.245483 0
    outer loop
      vertex -3.71964 -0.474831 13
      vertex -4.1843 -2.30975 2
      vertex -4.1843 -2.30975 13
    endloop
  endfacet
  facet normal 0.324699 0.945817 -0
    outer loop
      vertex -10.3964 -5.67158 2
      vertex -12.1867 -5.05697 13
      vertex -10.3964 -5.67158 13
    endloop
  endfacet
  facet normal 0.324699 0.945817 0
    outer loop
      vertex -12.1867 -5.05697 13
      vertex -10.3964 -5.67158 2
      vertex -12.1867 -5.05697 2
    endloop
  endfacet
  facet normal 0.614215 0.789139 -0
    outer loop
      vertex -12.1867 -5.05697 2
      vertex -13.6804 -3.89437 13
      vertex -12.1867 -5.05697 13
    endloop
  endfacet
  facet normal 0.614215 0.789139 0
    outer loop
      vertex -13.6804 -3.89437 13
      vertex -12.1867 -5.05697 2
      vertex -13.6804 -3.89437 2
    endloop
  endfacet
  facet normal 0.879474 -0.475947 0
    outer loop
      vertex -5.43845 -7.58298 13
      vertex -4.53756 -5.91828 2
      vertex -4.53756 -5.91828 13
    endloop
  endfacet
  facet normal 0.879474 -0.475947 0
    outer loop
      vertex -4.53756 -5.91828 2
      vertex -5.43845 -7.58298 13
      vertex -5.43845 -7.58298 2
    endloop
  endfacet
  facet normal 0.677285 0.735721 -0
    outer loop
      vertex -3.14495 -14.2637 2
      vertex -4.53756 -12.9817 13
      vertex -3.14495 -14.2637 13
    endloop
  endfacet
  facet normal 0.677285 0.735721 0
    outer loop
      vertex -4.53756 -12.9817 13
      vertex -3.14495 -14.2637 2
      vertex -4.53756 -12.9817 2
    endloop
  endfacet
  facet normal -1 0 0
    outer loop
      vertex 5.67158 -10.3964 2
      vertex 5.67158 -8.50358 13
      vertex 5.67158 -8.50358 2
    endloop
  endfacet
  facet normal -1 -0 0
    outer loop
      vertex 5.67158 -8.50358 13
      vertex 5.67158 -10.3964 2
      vertex 5.67158 -10.3964 13
    endloop
  endfacet
  facet normal 0.0825745 0.996585 -0
    outer loop
      vertex 0.474831 -15.1804 2
      vertex -1.41154 -15.0241 13
      vertex 0.474831 -15.1804 13
    endloop
  endfacet
  facet normal 0.0825745 0.996585 0
    outer loop
      vertex -1.41154 -15.0241 13
      vertex 0.474831 -15.1804 2
      vertex -1.41154 -15.0241 2
    endloop
  endfacet
  facet normal 0.986361 0.164596 0
    outer loop
      vertex -5.43845 -11.317 13
      vertex -5.75 -9.45 2
      vertex -5.75 -9.45 13
    endloop
  endfacet
  facet normal 0.986361 0.164596 0
    outer loop
      vertex -5.75 -9.45 2
      vertex -5.43845 -11.317 13
      vertex -5.43845 -11.317 2
    endloop
  endfacet
  facet normal -0.789141 -0.614212 0
    outer loop
      vertex 5.05697 -6.7133 2
      vertex 3.89437 -5.21959 13
      vertex 3.89437 -5.21959 2
    endloop
  endfacet
  facet normal -0.789141 -0.614212 0
    outer loop
      vertex 3.89437 -5.21959 13
      vertex 5.05697 -6.7133 2
      vertex 5.05697 -6.7133 13
    endloop
  endfacet
  facet normal 0.401694 -0.915774 0
    outer loop
      vertex -3.14495 -4.63629 2
      vertex -1.41154 -3.87595 13
      vertex -3.14495 -4.63629 13
    endloop
  endfacet
  facet normal 0.401694 -0.915774 0
    outer loop
      vertex -1.41154 -3.87595 13
      vertex -3.14495 -4.63629 2
      vertex -1.41154 -3.87595 2
    endloop
  endfacet
  facet normal -0.245483 -0.969401 0
    outer loop
      vertex 0.474831 -3.71964 2
      vertex 2.30975 -4.1843 13
      vertex 0.474831 -3.71964 13
    endloop
  endfacet
  facet normal -0.245483 -0.969401 -0
    outer loop
      vertex 2.30975 -4.1843 13
      vertex 0.474831 -3.71964 2
      vertex 2.30975 -4.1843 2
    endloop
  endfacet
  facet normal 0.986361 -0.164594 0
    outer loop
      vertex -5.75 -9.45 13
      vertex -5.43845 -7.58298 2
      vertex -5.43845 -7.58298 13
    endloop
  endfacet
  facet normal 0.986361 -0.164594 0
    outer loop
      vertex -5.43845 -7.58298 2
      vertex -5.75 -9.45 13
      vertex -5.75 -9.45 2
    endloop
  endfacet
  facet normal 0 0 1
    outer loop
      vertex 5.05697 -6.7133 2
      vertex 5.67158 -10.3964 2
      vertex 5.67158 -8.50358 2
    endloop
  endfacet
  facet normal 0 0 1
    outer loop
      vertex 5.05697 -6.7133 2
      vertex 5.05697 -12.1867 2
      vertex 5.67158 -10.3964 2
    endloop
  endfacet
  facet normal 0 0 1
    outer loop
      vertex 3.89437 -5.21959 2
      vertex 5.05697 -12.1867 2
      vertex 5.05697 -6.7133 2
    endloop
  endfacet
  facet normal 0 0 1
    outer loop
      vertex 3.89437 -5.21959 2
      vertex 3.89437 -13.6804 2
      vertex 5.05697 -12.1867 2
    endloop
  endfacet
  facet normal 0 0 1
    outer loop
      vertex 2.30975 -4.1843 2
      vertex 3.89437 -13.6804 2
      vertex 3.89437 -5.21959 2
    endloop
  endfacet
  facet normal 0 0 1
    outer loop
      vertex 2.30975 -4.1843 2
      vertex 2.30975 -14.7157 2
      vertex 3.89437 -13.6804 2
    endloop
  endfacet
  facet normal 0 0 1
    outer loop
      vertex 0.474831 -3.71964 2
      vertex 2.30975 -14.7157 2
      vertex 2.30975 -4.1843 2
    endloop
  endfacet
  facet normal 0 0 1
    outer loop
      vertex 0.474831 -3.71964 2
      vertex 0.474831 -15.1804 2
      vertex 2.30975 -14.7157 2
    endloop
  endfacet
  facet normal -0 0 1
    outer loop
      vertex -1.41154 -3.87595 2
      vertex 0.474831 -15.1804 2
      vertex 0.474831 -3.71964 2
    endloop
  endfacet
  facet normal 0 0 1
    outer loop
      vertex -1.41154 -3.87595 2
      vertex -1.41154 -15.0241 2
      vertex 0.474831 -15.1804 2
    endloop
  endfacet
  facet normal -0 0 1
    outer loop
      vertex -3.14495 -4.63629 2
      vertex -1.41154 -15.0241 2
      vertex -1.41154 -3.87595 2
    endloop
  endfacet
  facet normal 0 0 1
    outer loop
      vertex -3.14495 -4.63629 2
      vertex -3.14495 -14.2637 2
      vertex -1.41154 -15.0241 2
    endloop
  endfacet
  facet normal -0 0 1
    outer loop
      vertex -4.53756 -5.91828 2
      vertex -3.14495 -14.2637 2
      vertex -3.14495 -4.63629 2
    endloop
  endfacet
  facet normal 0 0 1
    outer loop
      vertex -4.53756 -5.91828 2
      vertex -4.53756 -12.9817 2
      vertex -3.14495 -14.2637 2
    endloop
  endfacet
  facet normal -0 0 1
    outer loop
      vertex -5.43845 -7.58298 2
      vertex -4.53756 -12.9817 2
      vertex -4.53756 -5.91828 2
    endloop
  endfacet
  facet normal 0 0 1
    outer loop
      vertex -5.43845 -7.58298 2
      vertex -5.43845 -11.317 2
      vertex -4.53756 -12.9817 2
    endloop
  endfacet
  facet normal 0 -0 1
    outer loop
      vertex -5.43845 -11.317 2
      vertex -5.43845 -7.58298 2
      vertex -5.75 -9.45 2
    endloop
  endfacet
  facet normal 0.40172 0.915762 -0
    outer loop
      vertex -1.41154 -15.0241 2
      vertex -3.14495 -14.2637 13
      vertex -1.41154 -15.0241 13
    endloop
  endfacet
  facet normal 0.40172 0.915762 0
    outer loop
      vertex -3.14495 -14.2637 13
      vertex -1.41154 -15.0241 2
      vertex -3.14495 -14.2637 2
    endloop
  endfacet
  facet normal -0.54695 -0.837165 0
    outer loop
      vertex 2.30975 -4.1843 2
      vertex 3.89437 -5.21959 13
      vertex 2.30975 -4.1843 13
    endloop
  endfacet
  facet normal -0.54695 -0.837165 -0
    outer loop
      vertex 3.89437 -5.21959 13
      vertex 2.30975 -4.1843 2
      vertex 3.89437 -5.21959 2
    endloop
  endfacet
  facet normal -0.546954 0.837163 0
    outer loop
      vertex 3.89437 -13.6804 2
      vertex 2.30975 -14.7157 13
      vertex 3.89437 -13.6804 13
    endloop
  endfacet
  facet normal -0.546954 0.837163 0
    outer loop
      vertex 2.30975 -14.7157 13
      vertex 3.89437 -13.6804 2
      vertex 2.30975 -14.7157 2
    endloop
  endfacet
  facet normal 0.0825798 -0.996584 0
    outer loop
      vertex -1.41154 -3.87595 2
      vertex 0.474831 -3.71964 13
      vertex -1.41154 -3.87595 13
    endloop
  endfacet
  facet normal 0.0825798 -0.996584 0
    outer loop
      vertex 0.474831 -3.71964 13
      vertex -1.41154 -3.87595 2
      vertex 0.474831 -3.71964 2
    endloop
  endfacet
  facet normal 0.879474 0.475947 0
    outer loop
      vertex -4.53756 -12.9817 13
      vertex -5.43845 -11.317 2
      vertex -5.43845 -11.317 13
    endloop
  endfacet
  facet normal 0.879474 0.475947 0
    outer loop
      vertex -5.43845 -11.317 2
      vertex -4.53756 -12.9817 13
      vertex -4.53756 -12.9817 2
    endloop
  endfacet
  facet normal -0.945816 -0.324702 0
    outer loop
      vertex 5.67158 -8.50358 2
      vertex 5.05697 -6.7133 13
      vertex 5.05697 -6.7133 2
    endloop
  endfacet
  facet normal -0.945816 -0.324702 0
    outer loop
      vertex 5.05697 -6.7133 13
      vertex 5.67158 -8.50358 2
      vertex 5.67158 -8.50358 13
    endloop
  endfacet
  facet normal -0.245503 0.969396 0
    outer loop
      vertex 2.30975 -14.7157 2
      vertex 0.474831 -15.1804 13
      vertex 2.30975 -14.7157 13
    endloop
  endfacet
  facet normal -0.245503 0.969396 0
    outer loop
      vertex 0.474831 -15.1804 13
      vertex 2.30975 -14.7157 2
      vertex 0.474831 -15.1804 2
    endloop
  endfacet
  facet normal 0.677282 -0.735723 0
    outer loop
      vertex -4.53756 -5.91828 2
      vertex -3.14495 -4.63629 13
      vertex -4.53756 -5.91828 13
    endloop
  endfacet
  facet normal 0.677282 -0.735723 0
    outer loop
      vertex -3.14495 -4.63629 13
      vertex -4.53756 -5.91828 2
      vertex -3.14495 -4.63629 2
    endloop
  endfacet
  facet normal -0.945817 0.324699 0
    outer loop
      vertex 5.05697 -12.1867 2
      vertex 5.67158 -10.3964 13
      vertex 5.67158 -10.3964 2
    endloop
  endfacet
  facet normal -0.945817 0.324699 0
    outer loop
      vertex 5.67158 -10.3964 13
      vertex 5.05697 -12.1867 2
      vertex 5.05697 -12.1867 13
    endloop
  endfacet
  facet normal -0.789139 0.614215 0
    outer loop
      vertex 3.89437 -13.6804 2
      vertex 5.05697 -12.1867 13
      vertex 5.05697 -12.1867 2
    endloop
  endfacet
  facet normal -0.789139 0.614215 0
    outer loop
      vertex 5.05697 -12.1867 13
      vertex 3.89437 -13.6804 2
      vertex 3.89437 -13.6804 13
    endloop
  endfacet
  facet normal -0.614215 -0.789139 0
    outer loop
      vertex 12.1867 5.05697 2
      vertex 13.6804 3.89437 13
      vertex 12.1867 5.05697 13
    endloop
  endfacet
  facet normal -0.614215 -0.789139 -0
    outer loop
      vertex 13.6804 3.89437 13
      vertex 12.1867 5.05697 2
      vertex 13.6804 3.89437 2
    endloop
  endfacet
  facet normal -0.735721 0.677285 0
    outer loop
      vertex 12.9817 -4.53756 2
      vertex 14.2637 -3.14495 13
      vertex 14.2637 -3.14495 2
    endloop
  endfacet
  facet normal -0.735721 0.677285 0
    outer loop
      vertex 14.2637 -3.14495 13
      vertex 12.9817 -4.53756 2
      vertex 12.9817 -4.53756 13
    endloop
  endfacet
  facet normal 0 -1 0
    outer loop
      vertex 8.50358 5.67158 2
      vertex 10.3964 5.67158 13
      vertex 8.50358 5.67158 13
    endloop
  endfacet
  facet normal 0 -1 -0
    outer loop
      vertex 10.3964 5.67158 13
      vertex 8.50358 5.67158 2
      vertex 10.3964 5.67158 2
    endloop
  endfacet
  facet normal -0.837163 -0.546954 0
    outer loop
      vertex 14.7157 2.30975 2
      vertex 13.6804 3.89437 13
      vertex 13.6804 3.89437 2
    endloop
  endfacet
  facet normal -0.837163 -0.546954 0
    outer loop
      vertex 13.6804 3.89437 13
      vertex 14.7157 2.30975 2
      vertex 14.7157 2.30975 13
    endloop
  endfacet
  facet normal -0.996585 0.0825745 0
    outer loop
      vertex 15.0241 -1.41154 2
      vertex 15.1804 0.474831 13
      vertex 15.1804 0.474831 2
    endloop
  endfacet
  facet normal -0.996585 0.0825745 0
    outer loop
      vertex 15.1804 0.474831 13
      vertex 15.0241 -1.41154 2
      vertex 15.0241 -1.41154 13
    endloop
  endfacet
  facet normal -0.164596 0.986361 0
    outer loop
      vertex 11.317 -5.43845 2
      vertex 9.45 -5.75 13
      vertex 11.317 -5.43845 13
    endloop
  endfacet
  facet normal -0.164596 0.986361 0
    outer loop
      vertex 9.45 -5.75 13
      vertex 11.317 -5.43845 2
      vertex 9.45 -5.75 2
    endloop
  endfacet
  facet normal 0.475947 0.879474 -0
    outer loop
      vertex 7.58298 -5.43845 2
      vertex 5.91828 -4.53756 13
      vertex 7.58298 -5.43845 13
    endloop
  endfacet
  facet normal 0.475947 0.879474 0
    outer loop
      vertex 5.91828 -4.53756 13
      vertex 7.58298 -5.43845 2
      vertex 5.91828 -4.53756 2
    endloop
  endfacet
  facet normal 0.969401 -0.245483 0
    outer loop
      vertex 3.71964 0.474831 13
      vertex 4.1843 2.30975 2
      vertex 4.1843 2.30975 13
    endloop
  endfacet
  facet normal 0.969401 -0.245483 0
    outer loop
      vertex 4.1843 2.30975 2
      vertex 3.71964 0.474831 13
      vertex 3.71964 0.474831 2
    endloop
  endfacet
  facet normal 0.164594 0.986361 -0
    outer loop
      vertex 9.45 -5.75 2
      vertex 7.58298 -5.43845 13
      vertex 9.45 -5.75 13
    endloop
  endfacet
  facet normal 0.164594 0.986361 0
    outer loop
      vertex 7.58298 -5.43845 13
      vertex 9.45 -5.75 2
      vertex 7.58298 -5.43845 2
    endloop
  endfacet
  facet normal -0.915762 0.40172 0
    outer loop
      vertex 14.2637 -3.14495 2
      vertex 15.0241 -1.41154 13
      vertex 15.0241 -1.41154 2
    endloop
  endfacet
  facet normal -0.915762 0.40172 0
    outer loop
      vertex 15.0241 -1.41154 13
      vertex 14.2637 -3.14495 2
      vertex 14.2637 -3.14495 13
    endloop
  endfacet
  facet normal 0.837165 -0.54695 0
    outer loop
      vertex 4.1843 2.30975 13
      vertex 5.21959 3.89437 2
      vertex 5.21959 3.89437 13
    endloop
  endfacet
  facet normal 0.837165 -0.54695 0
    outer loop
      vertex 5.21959 3.89437 2
      vertex 4.1843 2.30975 13
      vertex 4.1843 2.30975 2
    endloop
  endfacet
  facet normal 0.996584 0.0825798 0
    outer loop
      vertex 3.87595 -1.41154 13
      vertex 3.71964 0.474831 2
      vertex 3.71964 0.474831 13
    endloop
  endfacet
  facet normal 0.996584 0.0825798 0
    outer loop
      vertex 3.71964 0.474831 2
      vertex 3.87595 -1.41154 13
      vertex 3.87595 -1.41154 2
    endloop
  endfacet
  facet normal -0.475947 0.879474 0
    outer loop
      vertex 12.9817 -4.53756 2
      vertex 11.317 -5.43845 13
      vertex 12.9817 -4.53756 13
    endloop
  endfacet
  facet normal -0.475947 0.879474 0
    outer loop
      vertex 11.317 -5.43845 13
      vertex 12.9817 -4.53756 2
      vertex 11.317 -5.43845 2
    endloop
  endfacet
  facet normal 0.915774 0.401694 0
    outer loop
      vertex 4.63629 -3.14495 13
      vertex 3.87595 -1.41154 2
      vertex 3.87595 -1.41154 13
    endloop
  endfacet
  facet normal 0.915774 0.401694 0
    outer loop
      vertex 3.87595 -1.41154 2
      vertex 4.63629 -3.14495 13
      vertex 4.63629 -3.14495 2
    endloop
  endfacet
  facet normal 0.324702 -0.945816 0
    outer loop
      vertex 6.7133 5.05697 2
      vertex 8.50358 5.67158 13
      vertex 6.7133 5.05697 13
    endloop
  endfacet
  facet normal 0.324702 -0.945816 0
    outer loop
      vertex 8.50358 5.67158 13
      vertex 6.7133 5.05697 2
      vertex 8.50358 5.67158 2
    endloop
  endfacet
  facet normal -0.969396 -0.245503 0
    outer loop
      vertex 15.1804 0.474831 2
      vertex 14.7157 2.30975 13
      vertex 14.7157 2.30975 2
    endloop
  endfacet
  facet normal -0.969396 -0.245503 0
    outer loop
      vertex 14.7157 2.30975 13
      vertex 15.1804 0.474831 2
      vertex 15.1804 0.474831 13
    endloop
  endfacet
  facet normal 0.735723 0.677282 0
    outer loop
      vertex 5.91828 -4.53756 13
      vertex 4.63629 -3.14495 2
      vertex 4.63629 -3.14495 13
    endloop
  endfacet
  facet normal 0.735723 0.677282 0
    outer loop
      vertex 4.63629 -3.14495 2
      vertex 5.91828 -4.53756 13
      vertex 5.91828 -4.53756 2
    endloop
  endfacet
  facet normal 0 0 1
    outer loop
      vertex 14.7157 2.30975 2
      vertex 15.0241 -1.41154 2
      vertex 15.1804 0.474831 2
    endloop
  endfacet
  facet normal 0 0 1
    outer loop
      vertex 14.7157 2.30975 2
      vertex 14.2637 -3.14495 2
      vertex 15.0241 -1.41154 2
    endloop
  endfacet
  facet normal 0 0 1
    outer loop
      vertex 13.6804 3.89437 2
      vertex 14.2637 -3.14495 2
      vertex 14.7157 2.30975 2
    endloop
  endfacet
  facet normal 0 0 1
    outer loop
      vertex 13.6804 3.89437 2
      vertex 12.9817 -4.53756 2
      vertex 14.2637 -3.14495 2
    endloop
  endfacet
  facet normal 0 0 1
    outer loop
      vertex 12.1867 5.05697 2
      vertex 12.9817 -4.53756 2
      vertex 13.6804 3.89437 2
    endloop
  endfacet
  facet normal 0 0 1
    outer loop
      vertex 12.1867 5.05697 2
      vertex 11.317 -5.43845 2
      vertex 12.9817 -4.53756 2
    endloop
  endfacet
  facet normal 0 0 1
    outer loop
      vertex 10.3964 5.67158 2
      vertex 11.317 -5.43845 2
      vertex 12.1867 5.05697 2
    endloop
  endfacet
  facet normal 0 0 1
    outer loop
      vertex 10.3964 5.67158 2
      vertex 9.45 -5.75 2
      vertex 11.317 -5.43845 2
    endloop
  endfacet
  facet normal -0 0 1
    outer loop
      vertex 8.50358 5.67158 2
      vertex 9.45 -5.75 2
      vertex 10.3964 5.67158 2
    endloop
  endfacet
  facet normal 0 0 1
    outer loop
      vertex 8.50358 5.67158 2
      vertex 7.58298 -5.43845 2
      vertex 9.45 -5.75 2
    endloop
  endfacet
  facet normal -0 0 1
    outer loop
      vertex 6.7133 5.05697 2
      vertex 7.58298 -5.43845 2
      vertex 8.50358 5.67158 2
    endloop
  endfacet
  facet normal 0 0 1
    outer loop
      vertex 6.7133 5.05697 2
      vertex 5.91828 -4.53756 2
      vertex 7.58298 -5.43845 2
    endloop
  endfacet
  facet normal -0 0 1
    outer loop
      vertex 5.21959 3.89437 2
      vertex 5.91828 -4.53756 2
      vertex 6.7133 5.05697 2
    endloop
  endfacet
  facet normal 0 0 1
    outer loop
      vertex 5.21959 3.89437 2
      vertex 4.63629 -3.14495 2
      vertex 5.91828 -4.53756 2
    endloop
  endfacet
  facet normal -0 0 1
    outer loop
      vertex 4.1843 2.30975 2
      vertex 4.63629 -3.14495 2
      vertex 5.21959 3.89437 2
    endloop
  endfacet
  facet normal 0 0 1
    outer loop
      vertex 4.1843 2.30975 2
      vertex 3.87595 -1.41154 2
      vertex 4.63629 -3.14495 2
    endloop
  endfacet
  facet normal 0 -0 1
    outer loop
      vertex 3.87595 -1.41154 2
      vertex 4.1843 2.30975 2
      vertex 3.71964 0.474831 2
    endloop
  endfacet
  facet normal 0.614212 -0.789141 0
    outer loop
      vertex 5.21959 3.89437 2
      vertex 6.7133 5.05697 13
      vertex 5.21959 3.89437 13
    endloop
  endfacet
  facet normal 0.614212 -0.789141 0
    outer loop
      vertex 6.7133 5.05697 13
      vertex 5.21959 3.89437 2
      vertex 6.7133 5.05697 2
    endloop
  endfacet
  facet normal -0.324699 -0.945817 0
    outer loop
      vertex 10.3964 5.67158 2
      vertex 12.1867 5.05697 13
      vertex 10.3964 5.67158 13
    endloop
  endfacet
  facet normal -0.324699 -0.945817 -0
    outer loop
      vertex 12.1867 5.05697 13
      vertex 10.3964 5.67158 2
      vertex 12.1867 5.05697 2
    endloop
  endfacet
endsolid OpenSCAD_Model
